<?xml version="1.0" standalone="no"?>
<!DOCTYPE svg PUBLIC "-//W3C//DTD SVG 1.1//EN" "http://www.w3.org/Graphics/SVG/1.1/DTD/svg11.dtd" >
<svg xmlns="http://www.w3.org/2000/svg">
<metadata></metadata>
<defs>
<font id="gotham_prolight_italic" horiz-adv-x="1024" >
<font-face units-per-em="2048" ascent="1638" descent="-410" />
<missing-glyph horiz-adv-x="614" />
<glyph unicode="&#xfb01;" horiz-adv-x="1253" d="M113 0l256 952h-152l25 92h151l41 152q79 299 334 299q119 0 209 -49l-25 -90q-104 49 -188 49q-178 0 -236 -231l-34 -130h376l-24 -92h-377l-256 -952h-100zM807 0l280 1044h101l-281 -1044h-100zM1149 1317l37 137h125l-37 -137h-125z" />
<glyph unicode="&#xfb02;" horiz-adv-x="1253" d="M113 0l256 952h-152l25 92h151l41 152q79 299 334 299q119 0 209 -49l-25 -90q-104 49 -188 49q-178 0 -236 -231l-34 -130h376l-24 -92h-377l-256 -952h-100zM807 0l401 1495h101l-402 -1495h-100z" />
<glyph horiz-adv-x="0" />
<glyph horiz-adv-x="682" />
<glyph unicode=" "  horiz-adv-x="614" />
<glyph unicode="&#x09;" horiz-adv-x="614" />
<glyph unicode="&#xa0;" horiz-adv-x="614" />
<glyph unicode="!" horiz-adv-x="514" d="M49 0l47 174h135l-47 -174h-135zM188 375l215 915l39 144h119l-39 -144l-276 -915h-58z" />
<glyph unicode="&#x22;" horiz-adv-x="839" d="M207 913l190 521h129v-11l-260 -510h-59zM575 913l191 521h129v-11l-260 -510h-60z" />
<glyph unicode="#" horiz-adv-x="1388" d="M72 383l24 96h256l170 484h-272l24 96h281l131 375h98l-131 -375h424l131 375h99l-131 -375h247l-24 -96h-256l-170 -484h272l-24 -96h-281l-133 -383h-98l133 383h-424l-133 -383h-99l133 383h-247zM453 479h421l170 484h-423z" />
<glyph unicode="$" horiz-adv-x="1265" d="M-2 250l78 67q150 -176 405 -213l158 590q-200 75 -283.5 154t-83.5 203q0 164 136.5 273.5t339.5 109.5q32 0 90 -4l32 122h101l-37 -137q207 -40 352 -182l-74 -74q-125 125 -313 164l-149 -557q188 -68 271 -151.5t83 -208.5q0 -188 -154.5 -297t-406.5 -109l-54 -201 h-100l57 211q-138 21 -253.5 84.5t-194.5 155.5zM381 1061q0 -90 64.5 -147.5t220.5 -116.5l145 536q-25 4 -74 4q-153 0 -254.5 -79t-101.5 -197zM569 96h23q176 0 289.5 83t113.5 216q0 87 -61 149.5t-211 121.5z" />
<glyph unicode="%" horiz-adv-x="1681" d="M133 0l1397 1434h123l-1397 -1434h-123zM190 1001q0 114 51.5 217t143 167.5t197.5 64.5q123 0 201.5 -84.5t78.5 -208.5q0 -114 -51.5 -217t-142.5 -167t-197 -64q-123 0 -202 84.5t-79 207.5zM291 1012q0 -98 49.5 -156.5t138.5 -58.5q76 0 142.5 52.5t103.5 133 t37 164.5q0 98 -50 156.5t-139 58.5q-76 0 -142 -52.5t-103 -133t-37 -164.5zM924 279q0 114 51.5 217t142.5 167t197 64q123 0 201.5 -84.5t78.5 -208.5q0 -114 -51.5 -217t-142.5 -167t-197 -64q-123 0 -201.5 84.5t-78.5 208.5zM1024 289q0 -98 49.5 -156.5t138.5 -58.5 q76 0 142.5 52.5t103.5 133t37 164.5q0 98 -49.5 156.5t-138.5 58.5q-76 0 -142.5 -52.5t-103.5 -133t-37 -164.5z" />
<glyph unicode="&#x26;" horiz-adv-x="1413" d="M63 338q0 173 127.5 299t374.5 188q-96 155 -96 273q0 153 111 256.5t266 103.5q152 0 244 -81.5t92 -215.5q0 -61 -23 -113.5t-74.5 -104t-143.5 -96t-222 -79.5l291 -412q116 130 237 342l80 -47q-139 -230 -260 -364l184 -262l-80 -54l-174 248q-125 -124 -246 -181.5 t-278 -57.5q-176 0 -293 96.5t-117 261.5zM172 350q0 -127 85 -201.5t228 -74.5q239 0 457 215l-326 461q-223 -53 -333.5 -159.5t-110.5 -240.5zM573 1100q0 -63 22 -122t73 -136q409 106 409 315q0 94 -64 152.5t-171 58.5q-109 0 -189 -78.5t-80 -189.5z" />
<glyph unicode="'" horiz-adv-x="471" d="M207 913l190 521h129v-11l-260 -510h-59z" />
<glyph unicode="(" horiz-adv-x="880" d="M203 446q0 152 49 297.5t146 279.5t254 250.5t362 199.5l35 -76q-195 -83 -341 -194.5t-231.5 -236t-126.5 -253.5t-41 -264q0 -111 23 -209t68.5 -181t95.5 -148.5t120 -137.5l-57 -60q-356 318 -356 733z" />
<glyph unicode=")" horiz-adv-x="880" d="M-131 -209q157 67 282.5 153t210 179t140.5 198t81 208t25 210q0 111 -23 209t-68.5 181t-95.5 148.5t-120 137.5l57 60q357 -319 357 -734q0 -121 -30.5 -238t-94.5 -230.5t-158.5 -213.5t-229 -188.5t-298.5 -155.5z" />
<glyph unicode="*" horiz-adv-x="880" d="M283 1098l264 49l-205 172l64 61l172 -198l49 256l84 -21l-86 -248l247 86l25 -84l-264 -49l205 -172l-64 -61l-172 198l-49 -256l-84 21l86 248l-248 -86z" />
<glyph unicode="+" horiz-adv-x="1308" d="M199 672l26 98h445l116 440h103l-117 -440h445l-27 -98h-445l-118 -441h-103l119 441h-444z" />
<glyph unicode="," horiz-adv-x="473" d="M-80 -168q143 50 164 168h-55l47 174h135l-41 -151q-31 -106 -82.5 -158.5t-153.5 -81.5z" />
<glyph unicode="-" horiz-adv-x="837" d="M152 551l30 115h549l-31 -115h-548z" />
<glyph unicode="." horiz-adv-x="473" d="M29 0l47 174h135l-47 -174h-135z" />
<glyph unicode="/" d="M-248 -262l1467 1896h110l-1466 -1896h-111z" />
<glyph unicode="0" horiz-adv-x="1452" d="M168 512q0 174 56.5 344.5t152.5 303.5t235 215.5t293 82.5q229 0 355 -149t126 -387q0 -174 -56.5 -345t-152.5 -304t-235 -215.5t-293 -82.5q-153 0 -263.5 71t-164 190.5t-53.5 275.5zM279 512q0 -192 98 -316t278 -124q122 0 238 74t199 193t133.5 273.5t50.5 309.5 q0 192 -98.5 316t-278.5 124q-98 0 -193 -47.5t-171 -131t-134 -190.5t-90 -232t-32 -249z" />
<glyph unicode="1" horiz-adv-x="684" d="M190 0l355 1321l-301 -94l-4 96l360 121h84l-387 -1444h-107z" />
<glyph unicode="2" horiz-adv-x="1204" d="M-39 0l19 80l856 665q131 102 191 185.5t60 179.5q0 109 -82 178.5t-225 69.5q-217 0 -409 -205l-76 66q228 235 489 235q183 0 298.5 -95t115.5 -247q0 -82 -38 -158t-98.5 -138t-160.5 -140l-741 -574h827l-26 -102h-1000z" />
<glyph unicode="3" horiz-adv-x="1241" d="M20 256l89 49q122 -233 409 -233q190 0 315 101.5t125 258.5q0 135 -107 204t-294 69h-59l-23 53l639 577h-768l29 99h921l-20 -76l-629 -567q117 -5 211 -45t153.5 -119.5t59.5 -186.5q0 -133 -77 -240.5t-204.5 -166t-277.5 -58.5q-178 0 -304 75t-188 206z" />
<glyph unicode="4" horiz-adv-x="1320" d="M57 430l1092 1014h98l-268 -1002h233l-24 -92h-234l-94 -350h-104l94 350h-776zM203 442h671l224 832z" />
<glyph unicode="5" horiz-adv-x="1230" d="M33 231l88 56q148 -219 401 -219q102 0 190 33.5t147 89t92.5 128t33.5 150.5q0 144 -96.5 225.5t-247.5 81.5q-166 0 -330 -90l-67 53l227 695h774l-28 -99h-680l-177 -530q46 26 132 46.5t149 20.5q208 0 331.5 -107.5t123.5 -291.5q0 -80 -26.5 -154.5t-77.5 -136.5 t-121 -108.5t-161.5 -72.5t-193.5 -26q-314 0 -483 256z" />
<glyph unicode="6" horiz-adv-x="1310" d="M170 502q0 229 79 425.5t208 325.5q205 205 458 205q260 0 418 -190l-78 -68q-145 162 -346 162q-202 0 -370 -168q-100 -100 -170 -248.5t-80 -296.5q71 106 185 174t261 68q106 0 194 -34.5t145 -92.5t88.5 -133t31.5 -158q0 -99 -41.5 -190t-112.5 -159t-173.5 -108.5 t-217.5 -40.5q-102 0 -190.5 35t-149.5 96q-139 139 -139 396zM291 412q0 -148 94 -242q100 -100 270 -100q122 0 221 56t153 148t54 199q0 59 -21.5 114.5t-63.5 102t-111.5 75t-157.5 28.5q-96 0 -179.5 -33t-139 -86.5t-87.5 -122t-32 -139.5z" />
<glyph unicode="7" horiz-adv-x="1183" d="M164 0l964 1331h-825l29 103h950l-22 -78l-973 -1356h-123z" />
<glyph unicode="8" horiz-adv-x="1312" d="M82 354q0 166 122.5 271.5t315.5 134.5q-95 34 -157 114.5t-62 190.5q0 166 147.5 277.5t362.5 111.5q207 0 341 -103t134 -264q0 -144 -106 -243.5t-265 -128.5q104 -37 178 -123t74 -201q0 -118 -74 -212.5t-202.5 -146.5t-286.5 -52q-231 0 -376.5 108.5t-145.5 265.5 zM193 367q0 -129 114 -210t303 -81q201 0 324 89t123 230q0 122 -114 208.5t-300 86.5q-204 0 -327 -94.5t-123 -228.5zM412 1057q0 -120 99.5 -199.5t256.5 -79.5q191 0 299.5 90.5t108.5 212.5t-102 199.5t-263 77.5q-179 0 -289 -85.5t-110 -215.5z" />
<glyph unicode="9" horiz-adv-x="1310" d="M68 176l77 68q154 -174 359 -174q144 0 281.5 96t229.5 260t107 350q-33 -49 -73.5 -90.5t-95.5 -79.5t-127.5 -60t-153.5 -22q-105 0 -192.5 35t-144.5 93.5t-88.5 134.5t-31.5 159q0 101 41.5 194.5t113.5 163t175 111t219 41.5q217 0 347 -137.5t130 -388.5 q0 -210 -64.5 -392.5t-169.5 -304t-238 -191t-271 -69.5q-132 0 -242 54t-188 149zM326 950q0 -62 21 -118.5t62.5 -104t113 -76t163.5 -28.5t174.5 34t138.5 90t88.5 128.5t32.5 148.5q0 154 -106.5 246t-257.5 92q-91 0 -171.5 -33.5t-137 -90t-89 -132t-32.5 -156.5z" />
<glyph unicode=":" horiz-adv-x="493" d="M39 0l47 174h135l-47 -174h-135zM272 870l47 174h136l-47 -174h-136z" />
<glyph unicode=";" horiz-adv-x="493" d="M-70 -168q143 50 164 168h-55l47 174h135l-41 -151q-31 -107 -82 -159t-153 -81zM272 870l47 174h136l-47 -174h-136z" />
<glyph unicode="&#x3c;" horiz-adv-x="1310" d="M160 680l22 82l1084 493l-31 -120l-938 -422l711 -426l-29 -101z" />
<glyph unicode="=" horiz-adv-x="1310" d="M166 438l29 105h929l-28 -105h-930zM291 899l26 105h930l-26 -105h-930z" />
<glyph unicode="&#x3e;" horiz-adv-x="1310" d="M104 186l31 121l938 422l-711 426l29 100l819 -493l-22 -82z" />
<glyph unicode="?" horiz-adv-x="1093" d="M207 1245q207 207 475 207q188 0 300 -100t112 -258q0 -99 -43.5 -181t-119.5 -138t-172 -92t-208 -52l-88 -256h-66l62 332l14 10q231 18 371.5 116.5t140.5 258.5q0 125 -88 194.5t-223 69.5q-116 0 -220 -51t-182 -129zM262 0l47 174h135l-47 -174h-135z" />
<glyph unicode="@" horiz-adv-x="2007" d="M135 473q0 130 36.5 256t101.5 234t158 200t203 157t240.5 101.5t266.5 36.5q186 0 338.5 -56t253 -154t155 -230t54.5 -283q0 -112 -26.5 -209.5t-69.5 -165t-98.5 -116t-113.5 -71.5t-114 -23q-107 0 -170.5 54t-77.5 150q-164 -209 -381 -209q-137 0 -229.5 93 t-92.5 247q0 109 43 210.5t112.5 173.5t160 115.5t182.5 43.5q122 0 201.5 -62.5t113.5 -158.5l62 201l96 -27l-154 -496q-16 -56 -16 -98q0 -73 41.5 -117.5t118.5 -44.5q54 0 111.5 31.5t109.5 91t85.5 161t33.5 226.5q0 110 -31.5 209.5t-93.5 181t-149 141.5t-203.5 93 t-251.5 33q-151 0 -293.5 -48t-257 -134.5t-201.5 -200.5t-134.5 -253t-47.5 -284q0 -332 215.5 -534.5t572.5 -202.5q221 0 424 92l29 -59q-214 -99 -453 -99q-194 0 -354.5 58t-271.5 162.5t-172.5 254t-61.5 328.5zM684 489q0 -116 63 -181.5t164 -65.5q102 0 200 60.5 t160 159.5t62 204q0 117 -71 191.5t-191 74.5q-159 0 -273 -131t-114 -312z" />
<glyph unicode="A" horiz-adv-x="1554" d="M-70 0l1055 1444h102l281 -1444h-108l-74 401h-846l-291 -401h-119zM410 498h755l-153 829z" />
<glyph unicode="B" horiz-adv-x="1468" d="M74 0l385 1434h530q197 0 313.5 -87t116.5 -239q0 -102 -52 -184t-136 -132t-191 -71q123 -32 199 -106.5t76 -192.5q0 -187 -161.5 -304.5t-434.5 -117.5h-645zM207 98h518q222 0 351.5 86.5t129.5 237.5q0 122 -105 187t-274 65h-467zM387 772h442q217 0 348.5 90 t131.5 236q0 117 -86.5 177t-243.5 60h-440z" />
<glyph unicode="C" horiz-adv-x="1511" d="M188 555q0 172 68 337t182 289.5t273.5 200.5t332.5 76q188 0 322.5 -84.5t204.5 -224.5l-92 -49q-74 129 -177.5 195.5t-263.5 66.5q-151 0 -289.5 -68.5t-236 -180.5t-155.5 -257.5t-58 -296.5q0 -222 135.5 -354.5t349.5 -132.5q151 0 265.5 54.5t220.5 160.5l71 -66 q-111 -116 -247 -182t-320 -66q-119 0 -225.5 40.5t-186.5 114t-127 184.5t-47 243z" />
<glyph unicode="D" horiz-adv-x="1579" d="M74 0l385 1434h321q171 0 316.5 -49t240.5 -144q158 -158 158 -410q0 -163 -57.5 -305t-165.5 -250q-130 -130 -320 -203t-409 -73h-469zM207 98h350q192 0 354 63.5t281 182.5q192 192 192 479q0 221 -133 351q-161 161 -477 161h-235z" />
<glyph unicode="E" horiz-adv-x="1329" d="M74 0l385 1434h1009l-26 -99h-903l-152 -563h811l-27 -98h-811l-153 -576h913l-26 -98h-1020z" />
<glyph unicode="F" horiz-adv-x="1343" d="M74 0l385 1434h1009l-26 -99h-903l-158 -587h811l-27 -99h-811l-174 -649h-106z" />
<glyph unicode="G" horiz-adv-x="1609" d="M193 578q0 131 42.5 260.5t122 240.5t185.5 196.5t242 134t282 48.5q355 0 524 -266l-84 -55q-72 108 -174 166.5t-276 58.5q-157 0 -299 -67.5t-240.5 -177t-156.5 -250.5t-58 -285q0 -237 141 -374.5t373 -137.5q240 0 414 116l131 459h-477l26 98h582l-176 -616 q-237 -154 -506 -154q-178 0 -318 73.5t-220 212t-80 319.5z" />
<glyph unicode="H" horiz-adv-x="1548" d="M74 0l385 1434h106l-178 -664h907l179 664h106l-385 -1434h-107l181 672h-908l-180 -672h-106z" />
<glyph unicode="I" horiz-adv-x="561" d="M88 0l385 1434h107l-385 -1434h-107z" />
<glyph unicode="J" horiz-adv-x="1101" d="M-10 309l94 33q41 -134 116 -200t197 -66q154 0 260 106q102 102 160 314l252 938h107l-256 -953q-63 -238 -191 -366q-65 -65 -152 -100t-176 -35q-170 0 -271.5 90.5t-139.5 238.5z" />
<glyph unicode="K" horiz-adv-x="1462" d="M74 0l385 1434h106l-250 -932l1147 932h158l-797 -641l434 -793h-122l-400 731l-459 -373l-96 -358h-106z" />
<glyph unicode="L" horiz-adv-x="1228" d="M74 0l385 1434h106l-358 -1336h842l-27 -98h-948z" />
<glyph unicode="M" horiz-adv-x="1779" d="M74 0l385 1434h88l348 -848l803 848h112l-385 -1434h-106l334 1245l-789 -825h-8l-346 825l-334 -1245h-102z" />
<glyph unicode="N" horiz-adv-x="1609" d="M74 0l385 1434h98l645 -1256l338 1256h102l-385 -1434h-77l-660 1282l-344 -1282h-102z" />
<glyph unicode="O" horiz-adv-x="1732" d="M197 590q0 166 65.5 324.5t175 278t263.5 192.5t321 73q133 0 248.5 -48t196.5 -130t127 -196t46 -242q0 -166 -65.5 -325t-175 -278.5t-263.5 -192.5t-321 -73q-178 0 -320 82t-220 222.5t-78 312.5zM307 590q0 -223 141.5 -371.5t366.5 -148.5q147 0 281 65.5 t228.5 172.5t150 247t55.5 287q0 223 -141.5 371.5t-366.5 148.5q-147 0 -281 -65.5t-228.5 -172.5t-150 -247t-55.5 -287z" />
<glyph unicode="P" horiz-adv-x="1357" d="M74 0l385 1434h446q266 0 395 -129q99 -99 99 -256q0 -242 -190 -377t-519 -135h-364l-146 -537h-106zM350 633h344q288 0 443 107t155 304q0 118 -73 191q-100 100 -316 100h-364z" />
<glyph unicode="Q" horiz-adv-x="1732" d="M197 590q0 166 65.5 324.5t175 278t263.5 192.5t321 73q133 0 248.5 -48t196.5 -130t127 -196t46 -242q0 -185 -80.5 -359t-218.5 -299l154 -168l-78 -65l-147 174q-212 -152 -455 -152q-178 0 -320 82t-220 222.5t-78 312.5zM307 590q0 -223 141.5 -371.5t366.5 -148.5 q210 0 389 129l-239 266l77 67l234 -274q119 111 186.5 265t67.5 319q0 223 -141.5 371.5t-366.5 148.5q-147 0 -281 -65.5t-228.5 -172.5t-150 -247t-55.5 -287z" />
<glyph unicode="R" horiz-adv-x="1460" d="M74 0l385 1434h514q258 0 385 -127q90 -90 90 -234q0 -172 -127 -299q-69 -69 -179 -112.5t-243 -57.5l315 -604h-122l-308 594h-444l-160 -594h-106zM365 690h430q154 0 268 39t182 107q96 96 96 231q0 107 -63 170q-98 98 -309 98h-430z" />
<glyph unicode="S" horiz-adv-x="1306" d="M41 254l82 59q94 -121 213 -179t287 -58q177 0 295 89t118 224q0 93 -69.5 157t-243.5 132q-227 89 -318.5 171t-91.5 210q0 166 143.5 280.5t370.5 114.5q156 0 286.5 -60t211.5 -159l-82 -66q-162 189 -426 189q-178 0 -286.5 -86t-108.5 -205q0 -96 78 -159t264 -134 q204 -77 292.5 -162t88.5 -215q0 -176 -152 -296.5t-381 -120.5q-190 0 -334.5 72t-236.5 202z" />
<glyph unicode="T" horiz-adv-x="1259" d="M287 1335l26 99h1106l-26 -99h-500l-358 -1335h-107l358 1335h-499z" />
<glyph unicode="U" horiz-adv-x="1548" d="M197 428q0 109 28 221l209 785h107l-222 -834q-18 -74 -18 -164q0 -162 106.5 -262t313.5 -100q203 0 350 147q134 134 201 381l223 832h107l-230 -854q-72 -267 -227 -422q-181 -181 -432 -181q-249 0 -382.5 125.5t-133.5 325.5z" />
<glyph unicode="V" horiz-adv-x="1462" d="M291 1434h110l203 -1319l914 1319h120l-1013 -1444h-95z" />
<glyph unicode="W" horiz-adv-x="2199" d="M307 1434h111l108 -1276l762 1280h82l78 -1280l793 1276h118l-907 -1444h-86l-86 1245l-754 -1245h-86z" />
<glyph unicode="X" horiz-adv-x="1417" d="M-47 0l749 741l-380 693h114l342 -631l635 631h137l-721 -711l394 -723h-115l-354 662l-664 -662h-137z" />
<glyph unicode="Y" horiz-adv-x="1368" d="M260 1434h117l330 -770l745 770h143l-862 -879l-147 -555h-107l156 582z" />
<glyph unicode="Z" horiz-adv-x="1355" d="M-39 0l16 59l1303 1278h-926l27 97h1092l-17 -60l-1302 -1278h966l-26 -96h-1133z" />
<glyph unicode="[" horiz-adv-x="880" d="M33 -266l456 1700h560l-23 -78h-465l-414 -1544h465l-20 -78h-559z" />
<glyph unicode="\" d="M301 1634h90l453 -1896h-90z" />
<glyph unicode="]" horiz-adv-x="880" d="M-137 -266l22 78h465l414 1544h-465l20 78h560l-457 -1700h-559z" />
<glyph unicode="^" d="M264 1010l438 430h91l208 -430h-96l-170 342l-354 -342h-117z" />
<glyph unicode="_" horiz-adv-x="1228" d="M-233 -328l24 90h1239l-24 -90h-1239z" />
<glyph unicode="`" d="M592 1430l127 61l106 -272h-71z" />
<glyph unicode="a" horiz-adv-x="1169" d="M47 268q0 171 131.5 275t339.5 104q190 0 402 -59l8 28q14 54 14 105q0 119 -81 182.5t-234 63.5q-143 0 -303 -56l-19 90q165 60 330 60q191 0 298 -87t107 -239q0 -59 -20 -137l-160 -598h-98l47 180q-172 -205 -420 -205q-90 0 -166 31.5t-126 100t-50 161.5zM154 281 q0 -97 68.5 -155t185.5 -58q153 0 288.5 97t177.5 251l25 92q-192 49 -395 49q-156 0 -253 -77t-97 -199z" />
<glyph unicode="b" horiz-adv-x="1339" d="M51 0l402 1495h100l-178 -655q191 229 434 229q182 0 301 -123.5t119 -316.5q0 -136 -48.5 -258.5t-129.5 -209t-189 -137.5t-223 -51q-162 0 -266.5 83.5t-149.5 209.5l-71 -266h-101zM274 432q0 -154 101 -259t260 -105q138 0 250 76.5t173.5 202t61.5 269.5 q0 161 -90 260t-233 99q-95 0 -191 -46t-168.5 -120.5t-118 -174.5t-45.5 -202z" />
<glyph unicode="c" horiz-adv-x="1153" d="M102 426q0 168 84 316.5t226.5 237.5t304.5 89q149 0 252.5 -71.5t156.5 -180.5l-84 -47q-54 95 -132 150t-199 55q-130 0 -246 -75.5t-185 -201t-69 -266.5q0 -86 29.5 -156t78.5 -114t112 -68t132 -24q179 0 338 149l68 -65q-186 -179 -412 -179q-69 0 -135 19 t-124 57.5t-101.5 91.5t-69 126t-25.5 157z" />
<glyph unicode="d" horiz-adv-x="1339" d="M111 414q0 136 48.5 258.5t129 209t188.5 137t223 50.5q162 0 266.5 -83.5t149.5 -209.5l193 719h100l-399 -1495h-101l54 203q-191 -230 -433 -230q-182 0 -300.5 124t-118.5 317zM219 426q0 -160 90.5 -259t233.5 -99q128 0 249 76.5t197 203t76 262.5 q0 154 -101 259.5t-259 105.5q-138 0 -250.5 -77t-174 -202.5t-61.5 -269.5z" />
<glyph unicode="e" horiz-adv-x="1193" d="M102 414q0 121 47.5 239.5t127 210.5t193 148.5t237.5 56.5q126 0 217.5 -55.5t134.5 -144.5t43 -199q0 -98 -29 -183h-858q-4 -46 -4 -69q0 -157 95.5 -252.5t250.5 -95.5q110 0 191 35t165 104l60 -72q-95 -78 -190.5 -120t-225.5 -42q-200 0 -327.5 123t-127.5 316z M233 578h758q8 36 8 86q0 135 -74.5 224t-219.5 89q-168 0 -297 -115t-175 -284z" />
<glyph unicode="f" horiz-adv-x="741" d="M113 0l256 952h-152l25 92h151l41 152q79 299 334 299q119 0 209 -49l-25 -90q-104 49 -188 49q-178 0 -236 -231l-34 -130h376l-24 -92h-377l-256 -952h-100z" />
<glyph unicode="g" horiz-adv-x="1339" d="M-10 -137l73 74q187 -175 424 -175q205 0 322 117q91 91 143 275l37 131q-194 -207 -430 -207q-84 0 -162 28t-139.5 78.5t-98 128.5t-36.5 170q0 126 51 237.5t134.5 186.5t190 118.5t216.5 43.5q87 0 156.5 -23t117 -65.5t78 -87.5t55.5 -102l68 253h100l-243 -915 q-55 -202 -164 -311q-150 -150 -400 -150q-137 0 -267.5 52.5t-225.5 142.5zM231 489q0 -100 51 -174t128 -108.5t168 -34.5q128 0 244 67t185.5 175.5t69.5 224.5q0 132 -101 233t-265 101q-123 0 -232 -60t-178.5 -172.5t-69.5 -251.5z" />
<glyph unicode="h" horiz-adv-x="1247" d="M51 0l402 1495h100l-174 -645q87 105 180 162t215 57q155 0 248.5 -90.5t93.5 -241.5q0 -57 -22 -147l-156 -590h-100l159 598q17 66 17 129q0 117 -72 184.5t-197 67.5q-136 0 -263.5 -111t-172.5 -278l-157 -590h-101z" />
<glyph unicode="i" horiz-adv-x="512" d="M66 0l280 1044h100l-280 -1044h-100zM408 1317l36 137h125l-37 -137h-124z" />
<glyph unicode="j" horiz-adv-x="509" d="M-236 -313l25 90q62 -17 96 -17q115 0 154 142l307 1142h100l-309 -1150q-29 -108 -92.5 -168t-150.5 -60q-66 0 -130 21zM408 1317l36 137h125l-37 -137h-124z" />
<glyph unicode="k" horiz-adv-x="1146" d="M51 0l402 1495h100l-297 -1108l811 657h145l-581 -466l311 -578h-117l-278 516l-328 -262l-67 -254h-101z" />
<glyph unicode="l" horiz-adv-x="512" d="M66 0l401 1495h100l-401 -1495h-100z" />
<glyph unicode="m" horiz-adv-x="1947" d="M51 0l279 1044h100l-51 -194q57 70 106 114t119 74.5t150 30.5q68 0 123.5 -22t91.5 -59.5t58.5 -81.5t31.5 -93q73 121 184 188.5t254 67.5q142 0 234 -93t92 -239q0 -37 -27 -147l-156 -590h-100l160 598q16 62 16 129q0 116 -67 184t-181 68q-128 0 -249.5 -112 t-165.5 -277l-156 -590h-100l159 598q17 66 17 129q0 116 -67 184t-181 68q-128 0 -250 -112t-166 -277l-157 -590h-101z" />
<glyph unicode="n" horiz-adv-x="1251" d="M51 0l279 1044h100l-51 -194q87 105 180 162t215 57q155 0 248.5 -90.5t93.5 -241.5q0 -57 -22 -147l-156 -590h-100l159 598q17 66 17 129q0 117 -72 184.5t-197 67.5q-136 0 -263.5 -111t-172.5 -278l-157 -590h-101z" />
<glyph unicode="o" horiz-adv-x="1296" d="M104 438q0 122 50.5 237.5t134 202t199 139t237.5 52.5q206 0 335.5 -130.5t129.5 -332.5q0 -125 -52 -242t-137 -201.5t-199 -136t-233 -51.5q-206 0 -335.5 130.5t-129.5 332.5zM213 442q0 -174 100.5 -273t266.5 -99q126 0 241.5 72t187.5 195.5t72 264.5 q0 174 -100.5 273.5t-265.5 99.5q-129 0 -245.5 -74.5t-186.5 -198t-70 -260.5z" />
<glyph unicode="p" horiz-adv-x="1339" d="M-37 -328l369 1372h98l-55 -204q191 229 434 229q182 0 301 -123.5t119 -316.5q0 -136 -48.5 -258.5t-129.5 -209t-189 -137.5t-223 -51q-162 0 -266.5 83.5t-149.5 209.5l-160 -594h-100zM274 432q0 -154 101 -259t260 -105q138 0 250 76.5t173.5 202t61.5 269.5 q0 161 -90 260t-233 99q-95 0 -191 -46t-168.5 -120.5t-118 -174.5t-45.5 -202z" />
<glyph unicode="q" horiz-adv-x="1339" d="M111 414q0 136 48.5 258.5t129 209t188.5 137t223 50.5q84 0 155 -24t121 -66t84.5 -92t55.5 -109l72 266h100l-387 -1454h-100l164 615q-193 -232 -435 -232q-182 0 -300.5 124t-118.5 317zM219 426q0 -160 90.5 -259t233.5 -99q95 0 190.5 46t168 120.5t118 175 t45.5 202.5q0 154 -100.5 258.5t-259.5 104.5q-138 0 -250.5 -77t-174 -202.5t-61.5 -269.5z" />
<glyph unicode="r" horiz-adv-x="811" d="M51 0l279 1044h100l-78 -296q223 314 509 314q14 0 28 -1l-29 -111h-8q-189 0 -355.5 -141t-230.5 -381l-114 -428h-101z" />
<glyph unicode="s" horiz-adv-x="1013" d="M2 158l72 71q165 -159 383 -159q105 0 187.5 58t82.5 148q0 64 -48.5 111t-178.5 96q-156 58 -224.5 120t-68.5 161q0 128 107 215.5t280 87.5q104 0 205 -39.5t172 -99.5l-66 -76q-65 54 -149.5 88.5t-171.5 34.5q-125 0 -198 -58t-73 -137q0 -63 47.5 -106.5 t188.5 -98.5q157 -62 221 -125t64 -157q0 -89 -53.5 -162t-142.5 -113.5t-194 -40.5q-123 0 -238.5 46.5t-203.5 134.5z" />
<glyph unicode="t" horiz-adv-x="811" d="M172 188q0 47 12 101l178 663h-151l25 92h151l90 334h101l-91 -334h361l-25 -92h-360l-178 -665q-11 -50 -11 -88q0 -63 45 -94t125 -31q70 0 152 32l-27 -98q-71 -26 -147 -26q-111 0 -180.5 52t-69.5 154z" />
<glyph unicode="u" horiz-adv-x="1247" d="M131 307q0 54 23 148l155 589h101l-160 -598q-17 -66 -17 -129q0 -117 72 -184t197 -67q136 0 263.5 111t172.5 278l158 589h100l-278 -1044h-101l51 195q-87 -105 -180 -162.5t-215 -57.5q-155 0 -248.5 90.5t-93.5 241.5z" />
<glyph unicode="v" horiz-adv-x="1140" d="M182 1044h109l145 -931l641 931h121l-745 -1052h-86z" />
<glyph unicode="w" horiz-adv-x="1730" d="M203 1044h102l76 -909l559 914h80l72 -914l563 909h110l-665 -1052h-88l-72 895l-553 -895h-84z" />
<glyph unicode="x" horiz-adv-x="1144" d="M-59 0l581 541l-276 503h114l230 -440l459 440h135l-549 -512l289 -532h-115l-242 469l-491 -469h-135z" />
<glyph unicode="y" horiz-adv-x="1163" d="M-180 -262l55 82q32 -26 84 -43t94 -17q82 0 161 56t173 190l-213 1038h107l182 -933l629 933h120l-743 -1081q-112 -161 -212.5 -229t-215.5 -68q-117 0 -221 72z" />
<glyph unicode="z" horiz-adv-x="1118" d="M-35 0l17 57l972 897h-704l24 90h869l-17 -57l-972 -897h739l-25 -90h-903z" />
<glyph unicode="{" horiz-adv-x="983" d="M133 549l21 78h53q157 0 230.5 83.5t115.5 293.5q17 86 41 150t66 121.5t101.5 95t146 62t200.5 31.5l-6 -75q-112 -6 -191.5 -34.5t-131 -81t-81 -119.5t-47.5 -161q-28 -144 -68 -227.5t-97 -124.5t-148 -57q141 -43 141 -170q0 -56 -18 -117q-45 -158 -45 -236 q0 -106 59 -177.5t193 -108.5l-29 -64q-114 24 -189 79t-105 120t-30 143q0 50 9.5 96.5t37.5 149.5q19 68 19 113q0 68 -46 102.5t-149 34.5h-53z" />
<glyph unicode="|" horiz-adv-x="585" d="M289 -262v1896h90v-1896h-90z" />
<glyph unicode="}" horiz-adv-x="983" d="M-90 -289l6 76q112 6 191.5 34t131 81t81 119.5t47.5 160.5q40 211 109 298.5t204 111.5q-141 43 -141 170q0 56 18 117q45 157 45 235q0 106 -59 178t-193 109l29 63q86 -18 150 -53.5t101 -82t54.5 -98t17.5 -108.5q0 -50 -9.5 -96t-37.5 -149q-18 -65 -18 -113 q0 -68 45.5 -102.5t148.5 -34.5h54l-21 -78h-53q-157 0 -230.5 -83.5t-115.5 -293.5q-18 -86 -42 -150t-66 -121.5t-101 -95.5t-145.5 -62.5t-200.5 -31.5z" />
<glyph unicode="~" horiz-adv-x="942" d="M178 532q51 103 100 150t113 47q29 0 54 -10.5t40 -22.5t43 -39q38 -37 56.5 -49t42.5 -12q31 0 57 28.5t64 94.5l77 -31q-51 -103 -100 -149.5t-113 -46.5q-42 0 -69.5 16t-67.5 55q-29 28 -39.5 37t-26 17t-32.5 8q-31 0 -57 -28.5t-64 -94.5z" />
<glyph unicode="&#xa1;" horiz-adv-x="514" d="M57 0l39 143l277 916h57l-215 -916l-39 -143h-119zM387 1260l47 174h135l-47 -174h-135z" />
<glyph unicode="&#xa2;" horiz-adv-x="1142" d="M154 621q0 173 83.5 323t227.5 239t313 89q38 0 56 -2l69 176h103l-78 -193q101 -26 170 -88t106 -143l-84 -47q-41 74 -95.5 122t-137.5 68l-348 -886q40 -7 73 -7q201 0 367 150l68 -66q-193 -178 -441 -178q-44 0 -96 10l-80 -200h-102l90 227q-121 51 -192.5 160 t-71.5 246zM262 623q0 -109 51.5 -194.5t143.5 -125.5l344 875h-29q-139 0 -256.5 -75.5t-185.5 -203.5t-68 -276z" />
<glyph unicode="&#xa3;" horiz-adv-x="1277" d="M-4 0l14 51l187 41l143 533h-176l26 98h177l71 268q56 210 164 318q139 139 334 139q257 0 381 -225l-88 -54q-56 91 -126 137t-173 46q-145 0 -248 -103q-93 -93 -143 -276l-68 -250h610l-26 -98h-611l-141 -529h766l-27 -96h-1046z" />
<glyph unicode="&#xa5;" horiz-adv-x="1433" d="M152 256l24 92h430l53 201h-430l25 92h389l-348 793h121l329 -770l746 770h139l-778 -793h377l-25 -92h-438l-53 -201h438l-25 -92h-438l-67 -256h-107l68 256h-430z" />
<glyph unicode="&#xa7;" horiz-adv-x="1294" d="M137 147l68 76q67 -64 173 -107.5t226 -43.5q106 0 178 44t72 115q0 63 -66 110t-219 101q-204 72 -294.5 138t-90.5 161q0 118 115.5 190.5t290.5 72.5q-69 30 -113.5 80.5t-44.5 115.5q0 116 106.5 185t264.5 69q134 0 257 -48.5t195 -119.5l-67 -76q-68 64 -174 108 t-226 44q-106 0 -177.5 -44.5t-71.5 -115.5q0 -63 65.5 -110t218.5 -101q204 -72 294.5 -138t90.5 -161q0 -118 -115 -190t-290 -72q69 -30 113.5 -81t44.5 -116q0 -116 -106.5 -184.5t-264.5 -68.5q-134 0 -257.5 48.5t-195.5 118.5zM291 750q0 -60 62 -107t210 -98 q122 -43 240 -43q127 0 213 53.5t86 128.5q0 60 -62.5 107t-210.5 98q-125 43 -239 43q-127 0 -213 -53.5t-86 -128.5z" />
<glyph unicode="&#xa8;" d="M436 1219l45 163h142l-45 -163h-142zM770 1219l45 163h141l-45 -163h-141z" />
<glyph unicode="&#xa9;" horiz-adv-x="1699" d="M160 715q0 150 58 287t157 237t237 159.5t291 59.5t290.5 -59t235.5 -158t155.5 -235.5t57.5 -286.5q0 -200 -98 -371t-269.5 -272t-375.5 -101t-374.5 100t-267.5 270t-97 370zM221 715q0 -186 88 -342.5t244 -248t346 -91.5q143 0 270 54.5t217 147t142.5 219 t52.5 265.5q0 186 -88 342.5t-244 248t-346 91.5q-143 0 -270 -54.5t-217 -147t-142.5 -219t-52.5 -265.5zM537 727q0 160 107.5 274.5t266.5 114.5q92 0 158 -32t131 -93l-61 -63q-110 106 -230 106q-123 0 -202.5 -88.5t-79.5 -216.5q0 -126 83 -216.5t201 -90.5 q71 0 124.5 25.5t111.5 80.5l57 -57q-67 -65 -134.5 -98t-160.5 -33q-157 0 -264.5 113t-107.5 274z" />
<glyph unicode="&#xaa;" horiz-adv-x="798" d="M119 600l20 82h500l-21 -82h-499zM217 993q0 97 75 157t193 60q81 0 199 -30l4 12q8 28 8 55q0 119 -159 119q-76 0 -164 -31l-15 72q100 35 193 35q108 0 167.5 -48t59.5 -132q0 -26 -12 -80l-88 -330h-82l29 102q-102 -114 -234 -114q-74 0 -124 42t-50 111zM303 1001 q0 -43 30 -69.5t79 -26.5q78 0 153 56.5t97 132.5l8 28q-106 25 -185 25q-80 0 -131 -41t-51 -105z" />
<glyph unicode="&#xab;" horiz-adv-x="1054" d="M92 514l4 16l443 428l73 -57l-393 -393l170 -377l-84 -45zM510 514l4 16l442 428l74 -57l-393 -393l170 -377l-84 -45z" />
<glyph unicode="&#xac;" horiz-adv-x="1310" d="M242 899l28 105h930l-127 -474h-102l98 369h-827z" />
<glyph unicode="&#xad;" horiz-adv-x="837" d="M152 551l30 115h549l-31 -115h-548z" />
<glyph unicode="&#xae;" horiz-adv-x="1699" d="M160 715q0 150 58 287t157 237t237 159.5t291 59.5t290.5 -59t235.5 -158t155.5 -235.5t57.5 -286.5q0 -200 -98 -371t-269.5 -272t-375.5 -101t-374.5 100t-267.5 270t-97 370zM221 715q0 -186 88 -342.5t244 -248t346 -91.5q143 0 270 54.5t217 147t142.5 219 t52.5 265.5q0 186 -88 342.5t-244 248t-346 91.5q-143 0 -270 -54.5t-217 -147t-142.5 -219t-52.5 -265.5zM616 362v750h336q122 0 199.5 -59.5t77.5 -157.5q0 -89 -55 -144t-150 -73l250 -316h-115l-237 302h-217v-302h-89zM705 745h233q88 0 143.5 38t55.5 108 q0 64 -50.5 100.5t-138.5 36.5h-243v-283z" />
<glyph unicode="&#xaf;" d="M389 1229l29 108h614l-28 -108h-615z" />
<glyph unicode="&#xb0;" horiz-adv-x="749" d="M180 1100q0 137 101.5 240.5t238.5 103.5q113 0 185.5 -73.5t72.5 -184.5q0 -137 -101.5 -240.5t-238.5 -103.5q-113 0 -185.5 73.5t-72.5 184.5zM272 1110q0 -83 49.5 -132.5t127.5 -49.5q94 0 165.5 75t71.5 173q0 83 -49 132.5t-127 49.5q-94 0 -166 -75t-72 -173z " />
<glyph unicode="&#xb1;" horiz-adv-x="1310" d="M-6 45l26 98h1018l-26 -98h-1018zM143 602l27 98h455l98 363h108l-98 -363h455l-27 -98h-454l-97 -364h-108l96 364h-455z" />
<glyph unicode="&#xb4;" d="M514 1219l254 272l127 -61l-277 -211h-104z" />
<glyph unicode="&#xb5;" horiz-adv-x="1275" d="M-35 -328l367 1372h100l-166 -620q-18 -68 -18 -125q0 -109 65 -170t189 -61q155 0 288 105.5t175 266.5l161 604h101l-279 -1044h-100l49 182q-172 -207 -434 -207q-59 0 -105 15t-77 43t-51 58.5t-35 70.5l-129 -490h-101z" />
<glyph unicode="&#xb6;" horiz-adv-x="995" d="M209 913q0 244 178.5 382.5t489.5 138.5h149l-385 -1434h-109l144 539q-99 5 -180 28.5t-147 66.5t-103 114t-37 165z" />
<glyph unicode="&#xb7;" horiz-adv-x="473" d="M168 522l47 174h135l-47 -174h-135z" />
<glyph unicode="&#xb8;" d="M143 -250l256 270h88l-245 -323z" />
<glyph unicode="&#xba;" horiz-adv-x="798" d="M123 600l20 82h549l-20 -82h-549zM236 1098q0 138 101 242t241 104q118 0 192 -74.5t74 -189.5q0 -138 -101 -242t-241 -104q-119 0 -192.5 74.5t-73.5 189.5zM322 1102q0 -87 52 -140t134 -53q100 0 174 81t74 186q0 87 -51.5 139.5t-133.5 52.5q-102 0 -175.5 -80 t-73.5 -186z" />
<glyph unicode="&#xbb;" horiz-adv-x="1054" d="M23 141l393 394l-170 376l84 45l213 -428l-4 -16l-443 -428zM440 141l394 394l-170 376l84 45l213 -428l-5 -16l-442 -428z" />
<glyph unicode="&#xbf;" horiz-adv-x="1093" d="M104 340q0 99 43.5 181t119.5 138t172 92t208 52l88 256h66l-62 -332l-14 -10q-231 -18 -371.5 -116.5t-140.5 -258.5q0 -125 88 -194.5t223 -69.5q116 0 220 51t182 129l65 -70q-206 -206 -475 -206q-188 0 -300 100t-112 258zM754 1260l47 174h135l-47 -174h-135z" />
<glyph unicode="&#xc0;" horiz-adv-x="1554" d="M-70 0l1055 1444h102l281 -1444h-108l-74 401h-846l-291 -401h-119zM410 498h755l-153 829zM897 1778l127 61l106 -272h-71z" />
<glyph unicode="&#xc1;" horiz-adv-x="1554" d="M-70 0l1055 1444h102l281 -1444h-108l-74 401h-846l-291 -401h-119zM410 498h755l-153 829zM1001 1567l254 272l127 -61l-276 -211h-105z" />
<glyph unicode="&#xc2;" horiz-adv-x="1554" d="M-70 0l1055 1444h102l281 -1444h-108l-74 401h-846l-291 -401h-119zM410 498h755l-153 829zM821 1567l273 250h82l137 -250h-90l-107 139l-196 -139h-99z" />
<glyph unicode="&#xc3;" horiz-adv-x="1554" d="M-70 0l1055 1444h102l281 -1444h-108l-74 401h-846l-291 -401h-119zM410 498h755l-153 829zM774 1593q51 103 100 150t113 47q29 0 54 -10.5t40 -22.5t43 -39q38 -37 56.5 -49t42.5 -12q30 0 56 28t64 95l78 -31q-51 -103 -100 -150t-113 -47q-29 0 -54 10.5t-40 22.5 t-43 39q-29 28 -39.5 37t-26 17t-32.5 8q-31 0 -57 -28.5t-64 -94.5z" />
<glyph unicode="&#xc4;" horiz-adv-x="1554" d="M-70 0l1055 1444h102l281 -1444h-108l-74 401h-846l-291 -401h-119zM410 498h755l-153 829zM844 1567l45 164h141l-45 -164h-141zM1178 1567l45 164h141l-45 -164h-141z" />
<glyph unicode="&#xc5;" horiz-adv-x="1554" d="M-49 0l1020 1395q-44 22 -69 60t-25 85q0 87 64 148t153 61q87 0 141.5 -47.5t54.5 -120.5q0 -74 -48.5 -130.5t-121.5 -74.5l269 -1376h-109l-74 401h-846l-290 -401h-119zM430 498h756l-154 829zM950 1540q0 -46 32.5 -74t90.5 -28q60 0 102 41.5t42 101.5 q0 46 -32.5 74t-90.5 28q-60 0 -102 -41.5t-42 -101.5z" />
<glyph unicode="&#xc6;" horiz-adv-x="2187" d="M-66 0l1252 1434h1108l-27 -99h-883l-151 -563h790l-26 -98h-791l-153 -576h893l-27 -98h-999l108 401h-616l-349 -401h-129zM496 498h557l225 839h-55z" />
<glyph unicode="&#xc7;" horiz-adv-x="1511" d="M188 555q0 172 68 337t182 289.5t273.5 200.5t332.5 76q188 0 322.5 -84.5t204.5 -224.5l-92 -49q-74 129 -177.5 195.5t-263.5 66.5q-151 0 -289.5 -68.5t-236 -180.5t-155.5 -257.5t-58 -296.5q0 -222 135.5 -354.5t349.5 -132.5q151 0 265.5 54.5t220.5 160.5l71 -66 q-111 -116 -247 -182t-320 -66h-8l-211 -276l-98 53l219 232q-212 32 -350 185t-138 388z" />
<glyph unicode="&#xc8;" horiz-adv-x="1329" d="M74 0l385 1434h1009l-26 -99h-903l-152 -563h811l-27 -98h-811l-153 -576h913l-26 -98h-1020zM821 1778l127 61l107 -272h-72z" />
<glyph unicode="&#xc9;" horiz-adv-x="1329" d="M74 0l385 1434h1009l-26 -99h-903l-152 -563h811l-27 -98h-811l-153 -576h913l-26 -98h-1020zM846 1567l254 272l127 -61l-277 -211h-104z" />
<glyph unicode="&#xca;" horiz-adv-x="1329" d="M74 0l385 1434h1009l-26 -99h-903l-152 -563h811l-27 -98h-811l-153 -576h913l-26 -98h-1020zM727 1567l272 250h82l138 -250h-91l-106 139l-197 -139h-98z" />
<glyph unicode="&#xcb;" horiz-adv-x="1329" d="M74 0l385 1434h1009l-26 -99h-903l-152 -563h811l-27 -98h-811l-153 -576h913l-26 -98h-1020zM748 1567l45 164h141l-45 -164h-141zM1081 1567l45 164h142l-45 -164h-142z" />
<glyph unicode="&#xcc;" horiz-adv-x="561" d="M88 0l385 1434h107l-385 -1434h-107zM379 1778l127 61l106 -272h-71z" />
<glyph unicode="&#xcd;" horiz-adv-x="561" d="M88 0l385 1434h107l-385 -1434h-107zM475 1567l254 272l127 -61l-276 -211h-105z" />
<glyph unicode="&#xce;" horiz-adv-x="561" d="M88 0l385 1434h107l-385 -1434h-107zM303 1567l272 250h82l138 -250h-90l-107 139l-197 -139h-98z" />
<glyph unicode="&#xcf;" horiz-adv-x="561" d="M88 0l385 1434h107l-385 -1434h-107zM326 1567l45 164h141l-45 -164h-141zM659 1567l46 164h141l-45 -164h-142z" />
<glyph unicode="&#xd0;" horiz-adv-x="1640" d="M135 0l180 672h-153l26 98h154l178 664h322q171 0 316.5 -49t240.5 -144q157 -157 157 -410q0 -163 -57.5 -305t-165.5 -250q-130 -130 -320 -203t-409 -73h-469zM268 98h350q192 0 354 63.5t281 182.5q193 193 193 479q0 221 -133 351q-161 161 -477 161h-236l-151 -565 h475l-27 -98h-475z" />
<glyph unicode="&#xd1;" horiz-adv-x="1609" d="M74 0l385 1434h98l645 -1256l338 1256h102l-385 -1434h-77l-660 1282l-344 -1282h-102zM756 1593q51 103 100 150t113 47q29 0 54 -10.5t40 -22.5t43 -39t39 -36.5t26.5 -17t32.5 -7.5q30 0 56.5 28.5t64.5 94.5l78 -31q-51 -103 -100 -150t-113 -47q-29 0 -54 10.5 t-40 22.5t-43 39t-39.5 36.5t-27 17.5t-32.5 8q-30 0 -56 -28t-64 -95z" />
<glyph unicode="&#xd2;" horiz-adv-x="1732" d="M197 590q0 166 65.5 324.5t175 278t263.5 192.5t321 73q133 0 248.5 -48t196.5 -130t127 -196t46 -242q0 -166 -65.5 -325t-175 -278.5t-263.5 -192.5t-321 -73q-178 0 -320 82t-220 222.5t-78 312.5zM307 590q0 -223 141.5 -371.5t366.5 -148.5q147 0 281 65.5 t228.5 172.5t150 247t55.5 287q0 223 -141.5 371.5t-366.5 148.5q-147 0 -281 -65.5t-228.5 -172.5t-150 -247t-55.5 -287zM956 1778l127 61l107 -272h-72z" />
<glyph unicode="&#xd3;" horiz-adv-x="1732" d="M197 590q0 166 65.5 324.5t175 278t263.5 192.5t321 73q133 0 248.5 -48t196.5 -130t127 -196t46 -242q0 -166 -65.5 -325t-175 -278.5t-263.5 -192.5t-321 -73q-178 0 -320 82t-220 222.5t-78 312.5zM307 590q0 -223 141.5 -371.5t366.5 -148.5q147 0 281 65.5 t228.5 172.5t150 247t55.5 287q0 223 -141.5 371.5t-366.5 148.5q-147 0 -281 -65.5t-228.5 -172.5t-150 -247t-55.5 -287zM961 1567l253 272l127 -61l-276 -211h-104z" />
<glyph unicode="&#xd4;" horiz-adv-x="1732" d="M197 590q0 166 65.5 324.5t175 278t263.5 192.5t321 73q133 0 248.5 -48t196.5 -130t127 -196t46 -242q0 -166 -65.5 -325t-175 -278.5t-263.5 -192.5t-321 -73q-178 0 -320 82t-220 222.5t-78 312.5zM307 590q0 -223 141.5 -371.5t366.5 -148.5q147 0 281 65.5 t228.5 172.5t150 247t55.5 287q0 223 -141.5 371.5t-366.5 148.5q-147 0 -281 -65.5t-228.5 -172.5t-150 -247t-55.5 -287zM860 1567l273 250h81l138 -250h-90l-107 139l-197 -139h-98z" />
<glyph unicode="&#xd5;" horiz-adv-x="1732" d="M197 590q0 166 65.5 324.5t175 278t263.5 192.5t321 73q133 0 248.5 -48t196.5 -130t127 -196t46 -242q0 -166 -65.5 -325t-175 -278.5t-263.5 -192.5t-321 -73q-178 0 -320 82t-220 222.5t-78 312.5zM307 590q0 -223 141.5 -371.5t366.5 -148.5q147 0 281 65.5 t228.5 172.5t150 247t55.5 287q0 223 -141.5 371.5t-366.5 148.5q-147 0 -281 -65.5t-228.5 -172.5t-150 -247t-55.5 -287zM784 1593q51 103 100 150t113 47q29 0 54 -10t40.5 -23t43.5 -39q28 -27 39 -36.5t26.5 -17t32.5 -7.5q31 0 57 28.5t64 94.5l78 -31 q-51 -103 -100 -150t-113 -47q-29 0 -54 10t-40.5 23t-43.5 39q-29 28 -39.5 37t-26 17t-32.5 8q-31 0 -57 -28.5t-64 -94.5z" />
<glyph unicode="&#xd6;" horiz-adv-x="1732" d="M197 590q0 166 65.5 324.5t175 278t263.5 192.5t321 73q133 0 248.5 -48t196.5 -130t127 -196t46 -242q0 -166 -65.5 -325t-175 -278.5t-263.5 -192.5t-321 -73q-178 0 -320 82t-220 222.5t-78 312.5zM307 590q0 -223 141.5 -371.5t366.5 -148.5q147 0 281 65.5 t228.5 172.5t150 247t55.5 287q0 223 -141.5 371.5t-366.5 148.5q-147 0 -281 -65.5t-228.5 -172.5t-150 -247t-55.5 -287zM862 1567l45 164h142l-45 -164h-142zM1196 1567l45 164h141l-45 -164h-141z" />
<glyph unicode="&#xd8;" horiz-adv-x="1732" d="M-35 -10l322 268q-90 152 -90 332q0 166 65.5 324.5t175 278t263.5 192.5t321 73q142 0 261 -52t204 -146l219 184h141l-305 -256q98 -157 98 -346q0 -166 -65.5 -325t-175 -278.5t-263.5 -192.5t-321 -73q-146 0 -267.5 56t-207.5 155l-234 -194h-141zM307 590 q0 -146 62 -264l1040 868q-145 168 -387 168q-147 0 -281 -65.5t-228.5 -172.5t-150 -247t-55.5 -287zM418 250q67 -86 169 -133t228 -47q147 0 281 65.5t228.5 172.5t150 247t55.5 287q0 154 -70 278z" />
<glyph unicode="&#xd9;" horiz-adv-x="1548" d="M197 428q0 109 28 221l209 785h107l-222 -834q-18 -74 -18 -164q0 -162 106.5 -262t313.5 -100q203 0 350 147q134 134 201 381l223 832h107l-230 -854q-72 -267 -227 -422q-181 -181 -432 -181q-249 0 -382.5 125.5t-133.5 325.5zM874 1778l127 61l107 -272h-72z" />
<glyph unicode="&#xda;" horiz-adv-x="1548" d="M197 428q0 109 28 221l209 785h107l-222 -834q-18 -74 -18 -164q0 -162 106.5 -262t313.5 -100q203 0 350 147q134 134 201 381l223 832h107l-230 -854q-72 -267 -227 -422q-181 -181 -432 -181q-249 0 -382.5 125.5t-133.5 325.5zM899 1567l254 272l127 -61l-276 -211 h-105z" />
<glyph unicode="&#xdb;" horiz-adv-x="1548" d="M197 428q0 109 28 221l209 785h107l-222 -834q-18 -74 -18 -164q0 -162 106.5 -262t313.5 -100q203 0 350 147q134 134 201 381l223 832h107l-230 -854q-72 -267 -227 -422q-181 -181 -432 -181q-249 0 -382.5 125.5t-133.5 325.5zM793 1567l272 250h82l137 -250h-90 l-107 139l-196 -139h-98z" />
<glyph unicode="&#xdc;" horiz-adv-x="1548" d="M197 428q0 109 28 221l209 785h107l-222 -834q-18 -74 -18 -164q0 -162 106.5 -262t313.5 -100q203 0 350 147q134 134 201 381l223 832h107l-230 -854q-72 -267 -227 -422q-181 -181 -432 -181q-249 0 -382.5 125.5t-133.5 325.5zM803 1567l45 164h141l-45 -164h-141z M1137 1567l45 164h141l-45 -164h-141z" />
<glyph unicode="&#xdd;" horiz-adv-x="1368" d="M260 1434h117l330 -770l745 770h143l-862 -879l-147 -555h-107l156 582zM809 1567l254 272l127 -61l-277 -211h-104z" />
<glyph unicode="&#xde;" horiz-adv-x="1368" d="M74 0l385 1434h104l-67 -260h340q265 0 395 -130q98 -98 98 -256q0 -242 -189.5 -377t-518.5 -135h-365l-76 -276h-106zM281 373h344q288 0 443 107t155 304q0 117 -74 191q-100 100 -315 100h-365z" />
<glyph unicode="&#xdf;" horiz-adv-x="1269" d="M51 0l275 1024q59 223 178 342q143 143 340 143q166 0 274.5 -93.5t108.5 -235.5q0 -311 -434 -432q147 -38 236 -121.5t89 -214.5q0 -184 -180 -301.5t-487 -114.5l24 90q137 1 242 28.5t167.5 73.5t94 103t31.5 123q0 218 -371 286l25 93q236 56 345 151t109 232 q0 106 -75 172.5t-207 66.5q-149 0 -257 -111.5t-161 -310.5l-266 -993h-101z" />
<glyph unicode="&#xe0;" horiz-adv-x="1169" d="M47 268q0 171 131.5 275t339.5 104q190 0 402 -59l8 28q14 54 14 105q0 119 -81 182.5t-234 63.5q-143 0 -303 -56l-19 90q165 60 330 60q191 0 298 -87t107 -239q0 -59 -20 -137l-160 -598h-98l47 180q-172 -205 -420 -205q-90 0 -166 31.5t-126 100t-50 161.5zM154 281 q0 -97 68.5 -155t185.5 -58q153 0 288.5 97t177.5 251l25 92q-192 49 -395 49q-156 0 -253 -77t-97 -199zM582 1430l127 61l106 -272h-72z" />
<glyph unicode="&#xe1;" horiz-adv-x="1169" d="M47 268q0 171 131.5 275t339.5 104q190 0 402 -59l8 28q14 54 14 105q0 119 -81 182.5t-234 63.5q-143 0 -303 -56l-19 90q165 60 330 60q191 0 298 -87t107 -239q0 -59 -20 -137l-160 -598h-98l47 180q-172 -205 -420 -205q-90 0 -166 31.5t-126 100t-50 161.5zM154 281 q0 -97 68.5 -155t185.5 -58q153 0 288.5 97t177.5 251l25 92q-192 49 -395 49q-156 0 -253 -77t-97 -199zM616 1219l254 272l127 -61l-276 -211h-105z" />
<glyph unicode="&#xe2;" horiz-adv-x="1169" d="M47 268q0 171 131.5 275t339.5 104q190 0 402 -59l8 28q14 54 14 105q0 119 -81 182.5t-234 63.5q-143 0 -303 -56l-19 90q165 60 330 60q191 0 298 -87t107 -239q0 -59 -20 -137l-160 -598h-98l47 180q-172 -205 -420 -205q-90 0 -166 31.5t-126 100t-50 161.5zM154 281 q0 -97 68.5 -155t185.5 -58q153 0 288.5 97t177.5 251l25 92q-192 49 -395 49q-156 0 -253 -77t-97 -199zM504 1219l272 249h82l137 -249h-90l-106 139l-197 -139h-98z" />
<glyph unicode="&#xe3;" horiz-adv-x="1169" d="M47 268q0 171 131.5 275t339.5 104q190 0 402 -59l8 28q14 54 14 105q0 119 -81 182.5t-234 63.5q-143 0 -303 -56l-19 90q165 60 330 60q191 0 298 -87t107 -239q0 -59 -20 -137l-160 -598h-98l47 180q-172 -205 -420 -205q-90 0 -166 31.5t-126 100t-50 161.5zM154 281 q0 -97 68.5 -155t185.5 -58q153 0 288.5 97t177.5 251l25 92q-192 49 -395 49q-156 0 -253 -77t-97 -199zM451 1245q51 103 100 150t113 47q29 0 54 -10.5t40 -22.5t43 -39t39 -36.5t26.5 -17t32.5 -7.5q31 0 57 28.5t64 94.5l78 -31q-51 -103 -100 -150t-113 -47 q-29 0 -54 10.5t-40 22.5t-43 39q-38 37 -56.5 49t-42.5 12q-31 0 -57 -28.5t-64 -94.5z" />
<glyph unicode="&#xe4;" horiz-adv-x="1169" d="M47 268q0 171 131.5 275t339.5 104q190 0 402 -59l8 28q14 54 14 105q0 119 -81 182.5t-234 63.5q-143 0 -303 -56l-19 90q165 60 330 60q191 0 298 -87t107 -239q0 -59 -20 -137l-160 -598h-98l47 180q-172 -205 -420 -205q-90 0 -166 31.5t-126 100t-50 161.5zM154 281 q0 -97 68.5 -155t185.5 -58q153 0 288.5 97t177.5 251l25 92q-192 49 -395 49q-156 0 -253 -77t-97 -199zM508 1219l45 163h141l-45 -163h-141zM842 1219l45 163h141l-45 -163h-141z" />
<glyph unicode="&#xe5;" horiz-adv-x="1169" d="M47 268q0 171 131.5 275t339.5 104q190 0 402 -59l8 28q14 54 14 105q0 119 -81 182.5t-234 63.5q-143 0 -303 -56l-19 90q165 60 330 60q191 0 298 -87t107 -239q0 -59 -20 -137l-160 -598h-98l47 180q-172 -205 -420 -205q-90 0 -166 31.5t-126 100t-50 161.5zM154 281 q0 -97 68.5 -155t185.5 -58q153 0 288.5 97t177.5 251l25 92q-192 49 -395 49q-156 0 -253 -77t-97 -199zM590 1386q0 87 64 148t153 61q87 0 142 -47.5t55 -120.5q0 -87 -64.5 -147.5t-153.5 -60.5q-87 0 -141.5 47t-54.5 120zM664 1386q0 -46 32 -74t90 -28q60 0 102 41.5 t42 101.5q0 46 -32.5 74.5t-90.5 28.5q-60 0 -101.5 -42t-41.5 -102z" />
<glyph unicode="&#xe6;" horiz-adv-x="1976" d="M47 279q0 167 135 267.5t344 100.5q204 0 394 -59l8 28q14 54 14 105q0 119 -81 182.5t-234 63.5q-143 0 -303 -56l-19 90q165 60 330 60t268 -65t129 -183q86 116 206.5 186t254.5 70q126 0 217.5 -55.5t134.5 -144.5t43 -199q0 -101 -28 -183h-859q-4 -46 -4 -69 q0 -157 95.5 -252.5t250.5 -95.5q110 0 191.5 35t165.5 104l59 -72q-196 -162 -409 -162q-154 0 -261.5 69t-156.5 187q-112 -117 -246.5 -186.5t-275.5 -69.5q-159 0 -261 80t-102 224zM154 291q0 -103 69.5 -163t194.5 -60q252 0 487 256q-8 41 -8 98q0 44 6 88 q-164 47 -391 47q-156 0 -257 -75t-101 -191zM1020 578h758q8 36 8 86q0 135 -75 224t-220 89q-168 0 -296.5 -115t-174.5 -284z" />
<glyph unicode="&#xe7;" horiz-adv-x="1153" d="M102 426q0 168 84 316.5t226.5 237.5t304.5 89q149 0 252.5 -71.5t156.5 -180.5l-84 -47q-54 95 -132 150t-199 55q-130 0 -246 -75.5t-185 -201t-69 -266.5q0 -86 29.5 -156t78.5 -114t112 -68t132 -24q179 0 338 149l68 -65q-186 -179 -412 -179h-6l-211 -278l-98 53 l221 234q-154 31 -257.5 148t-103.5 294z" />
<glyph unicode="&#xe8;" horiz-adv-x="1193" d="M102 414q0 121 47.5 239.5t127 210.5t193 148.5t237.5 56.5q126 0 217.5 -55.5t134.5 -144.5t43 -199q0 -98 -29 -183h-858q-4 -46 -4 -69q0 -157 95.5 -252.5t250.5 -95.5q110 0 191 35t165 104l60 -72q-95 -78 -190.5 -120t-225.5 -42q-200 0 -327.5 123t-127.5 316z M233 578h758q8 36 8 86q0 135 -74.5 224t-219.5 89q-168 0 -297 -115t-175 -284zM590 1430l127 61l106 -272h-71z" />
<glyph unicode="&#xe9;" horiz-adv-x="1193" d="M102 414q0 121 47.5 239.5t127 210.5t193 148.5t237.5 56.5q126 0 217.5 -55.5t134.5 -144.5t43 -199q0 -98 -29 -183h-858q-4 -46 -4 -69q0 -157 95.5 -252.5t250.5 -95.5q110 0 191 35t165 104l60 -72q-95 -78 -190.5 -120t-225.5 -42q-200 0 -327.5 123t-127.5 316z M233 578h758q8 36 8 86q0 135 -74.5 224t-219.5 89q-168 0 -297 -115t-175 -284zM635 1219l254 272l127 -61l-277 -211h-104z" />
<glyph unicode="&#xea;" horiz-adv-x="1193" d="M102 414q0 121 47.5 239.5t127 210.5t193 148.5t237.5 56.5q126 0 217.5 -55.5t134.5 -144.5t43 -199q0 -98 -29 -183h-858q-4 -46 -4 -69q0 -157 95.5 -252.5t250.5 -95.5q110 0 191 35t165 104l60 -72q-95 -78 -190.5 -120t-225.5 -42q-200 0 -327.5 123t-127.5 316z M233 578h758q8 36 8 86q0 135 -74.5 224t-219.5 89q-168 0 -297 -115t-175 -284zM500 1219l272 249h82l137 -249h-90l-106 139l-197 -139h-98z" />
<glyph unicode="&#xeb;" horiz-adv-x="1193" d="M102 414q0 121 47.5 239.5t127 210.5t193 148.5t237.5 56.5q126 0 217.5 -55.5t134.5 -144.5t43 -199q0 -98 -29 -183h-858q-4 -46 -4 -69q0 -157 95.5 -252.5t250.5 -95.5q110 0 191 35t165 104l60 -72q-95 -78 -190.5 -120t-225.5 -42q-200 0 -327.5 123t-127.5 316z M233 578h758q8 36 8 86q0 135 -74.5 224t-219.5 89q-168 0 -297 -115t-175 -284zM516 1219l45 163h141l-45 -163h-141zM850 1219l45 163h141l-45 -163h-141z" />
<glyph unicode="&#xec;" horiz-adv-x="512" d="M66 0l280 1044h100l-280 -1044h-100zM207 1430l127 61l106 -272h-71z" />
<glyph unicode="&#xed;" horiz-adv-x="512" d="M66 0l280 1044h100l-280 -1044h-100zM371 1219l254 272l127 -61l-277 -211h-104z" />
<glyph unicode="&#xee;" horiz-adv-x="512" d="M66 0l280 1044h100l-280 -1044h-100zM178 1219l273 249h81l138 -249h-90l-107 139l-197 -139h-98z" />
<glyph unicode="&#xef;" horiz-adv-x="512" d="M66 0l280 1044h100l-280 -1044h-100zM197 1219l45 163h141l-45 -163h-141zM530 1219l45 163h142l-45 -163h-142z" />
<glyph unicode="&#xf0;" horiz-adv-x="1261" d="M96 414q0 157 81.5 291.5t213.5 211t279 76.5q186 0 315 -108l-168 399l-315 -139l-45 82l323 143l-53 125h121l33 -82l227 100l45 -81l-238 -105l150 -377q53 -131 74.5 -217t21.5 -172q0 -109 -45.5 -214.5t-123.5 -187.5t-193 -132t-244 -50q-197 0 -328 126t-131 311 zM205 420q0 -159 100.5 -253.5t259.5 -94.5q130 0 242.5 65t179 177.5t66.5 242.5q0 146 -103 246t-278 100q-93 0 -179.5 -39t-149.5 -104.5t-100.5 -154.5t-37.5 -185z" />
<glyph unicode="&#xf1;" horiz-adv-x="1251" d="M51 0l279 1044h100l-51 -194q87 105 180 162t215 57q155 0 248.5 -90.5t93.5 -241.5q0 -57 -22 -147l-156 -590h-100l159 598q17 66 17 129q0 117 -72 184.5t-197 67.5q-136 0 -263.5 -111t-172.5 -278l-157 -590h-101zM492 1245q51 103 100 150t113 47q29 0 54 -10.5 t40 -22.5t43 -39t39 -36.5t26.5 -17t32.5 -7.5q31 0 57 28.5t64 94.5l78 -31q-51 -103 -100 -150t-113 -47q-29 0 -54 10t-40.5 23t-43.5 39q-28 27 -39 36.5t-26.5 17t-32.5 7.5q-30 0 -56.5 -28.5t-64.5 -94.5z" />
<glyph unicode="&#xf2;" horiz-adv-x="1296" d="M104 438q0 122 50.5 237.5t134 202t199 139t237.5 52.5q206 0 335.5 -130.5t129.5 -332.5q0 -125 -52 -242t-137 -201.5t-199 -136t-233 -51.5q-206 0 -335.5 130.5t-129.5 332.5zM213 442q0 -174 100.5 -273t266.5 -99q126 0 241.5 72t187.5 195.5t72 264.5 q0 174 -100.5 273.5t-265.5 99.5q-129 0 -245.5 -74.5t-186.5 -198t-70 -260.5zM612 1430l127 61l107 -272h-72z" />
<glyph unicode="&#xf3;" horiz-adv-x="1296" d="M104 438q0 122 50.5 237.5t134 202t199 139t237.5 52.5q206 0 335.5 -130.5t129.5 -332.5q0 -125 -52 -242t-137 -201.5t-199 -136t-233 -51.5q-206 0 -335.5 130.5t-129.5 332.5zM213 442q0 -174 100.5 -273t266.5 -99q126 0 241.5 72t187.5 195.5t72 264.5 q0 174 -100.5 273.5t-265.5 99.5q-129 0 -245.5 -74.5t-186.5 -198t-70 -260.5zM659 1219l254 272l127 -61l-276 -211h-105z" />
<glyph unicode="&#xf4;" horiz-adv-x="1296" d="M104 438q0 122 50.5 237.5t134 202t199 139t237.5 52.5q206 0 335.5 -130.5t129.5 -332.5q0 -125 -52 -242t-137 -201.5t-199 -136t-233 -51.5q-206 0 -335.5 130.5t-129.5 332.5zM213 442q0 -174 100.5 -273t266.5 -99q126 0 241.5 72t187.5 195.5t72 264.5 q0 174 -100.5 273.5t-265.5 99.5q-129 0 -245.5 -74.5t-186.5 -198t-70 -260.5zM569 1219l273 249h82l137 -249h-90l-107 139l-196 -139h-99z" />
<glyph unicode="&#xf5;" horiz-adv-x="1296" d="M104 438q0 122 50.5 237.5t134 202t199 139t237.5 52.5q206 0 335.5 -130.5t129.5 -332.5q0 -125 -52 -242t-137 -201.5t-199 -136t-233 -51.5q-206 0 -335.5 130.5t-129.5 332.5zM213 442q0 -174 100.5 -273t266.5 -99q126 0 241.5 72t187.5 195.5t72 264.5 q0 174 -100.5 273.5t-265.5 99.5q-129 0 -245.5 -74.5t-186.5 -198t-70 -260.5zM500 1245q51 103 100 150t113 47q29 0 54 -10.5t40 -22.5t43 -39t39 -36.5t26.5 -17t32.5 -7.5q30 0 56.5 28.5t64.5 94.5l78 -31q-51 -103 -100 -150t-113 -47q-29 0 -54 10.5t-40 22.5 t-43 39q-38 37 -56.5 49t-42.5 12q-30 0 -56 -28t-64 -95z" />
<glyph unicode="&#xf6;" horiz-adv-x="1296" d="M104 438q0 122 50.5 237.5t134 202t199 139t237.5 52.5q206 0 335.5 -130.5t129.5 -332.5q0 -125 -52 -242t-137 -201.5t-199 -136t-233 -51.5q-206 0 -335.5 130.5t-129.5 332.5zM213 442q0 -174 100.5 -273t266.5 -99q126 0 241.5 72t187.5 195.5t72 264.5 q0 174 -100.5 273.5t-265.5 99.5q-129 0 -245.5 -74.5t-186.5 -198t-70 -260.5zM551 1219l45 163h141l-45 -163h-141zM885 1219l45 163h141l-45 -163h-141z" />
<glyph unicode="&#xf7;" horiz-adv-x="1310" d="M252 672l29 104h929l-28 -104h-930zM541 264l47 174h135l-47 -174h-135zM741 1010l45 174h136l-45 -174h-136z" />
<glyph unicode="&#xf8;" horiz-adv-x="1296" d="M-72 -10l242 196q-66 111 -66 252q0 122 50.5 237.5t134 202t199 139t237.5 52.5q215 0 346 -141l162 131h137l-246 -201q66 -111 66 -252q0 -125 -52 -242t-137 -201.5t-199 -136t-233 -51.5q-212 0 -346 144l-157 -129h-138zM213 442q0 -105 39 -188l743 610 q-102 111 -280 111q-129 0 -245.5 -74.5t-186.5 -198t-70 -260.5zM299 180q96 -110 281 -110q126 0 241.5 72t187.5 195.5t72 264.5q0 106 -39 189z" />
<glyph unicode="&#xf9;" horiz-adv-x="1247" d="M131 307q0 54 23 148l155 589h101l-160 -598q-17 -66 -17 -129q0 -117 72 -184t197 -67q136 0 263.5 111t172.5 278l158 589h100l-278 -1044h-101l51 195q-87 -105 -180 -162.5t-215 -57.5q-155 0 -248.5 90.5t-93.5 241.5zM596 1430l127 61l106 -272h-71z" />
<glyph unicode="&#xfa;" horiz-adv-x="1247" d="M131 307q0 54 23 148l155 589h101l-160 -598q-17 -66 -17 -129q0 -117 72 -184t197 -67q136 0 263.5 111t172.5 278l158 589h100l-278 -1044h-101l51 195q-87 -105 -180 -162.5t-215 -57.5q-155 0 -248.5 90.5t-93.5 241.5zM676 1219l254 272l127 -61l-277 -211h-104z " />
<glyph unicode="&#xfb;" horiz-adv-x="1247" d="M131 307q0 54 23 148l155 589h101l-160 -598q-17 -66 -17 -129q0 -117 72 -184t197 -67q136 0 263.5 111t172.5 278l158 589h100l-278 -1044h-101l51 195q-87 -105 -180 -162.5t-215 -57.5q-155 0 -248.5 90.5t-93.5 241.5zM539 1219l272 249h82l137 -249h-90l-106 139 l-197 -139h-98z" />
<glyph unicode="&#xfc;" horiz-adv-x="1247" d="M131 307q0 54 23 148l155 589h101l-160 -598q-17 -66 -17 -129q0 -117 72 -184t197 -67q136 0 263.5 111t172.5 278l158 589h100l-278 -1044h-101l51 195q-87 -105 -180 -162.5t-215 -57.5q-155 0 -248.5 90.5t-93.5 241.5zM549 1219l45 163h141l-45 -163h-141zM883 1219 l45 163h141l-45 -163h-141z" />
<glyph unicode="&#xfd;" horiz-adv-x="1163" d="M-180 -262l55 82q32 -26 84 -43t94 -17q82 0 161 56t173 190l-213 1038h107l182 -933l629 933h120l-743 -1081q-112 -161 -212.5 -229t-215.5 -68q-117 0 -221 72zM604 1219l254 272l127 -61l-276 -211h-105z" />
<glyph unicode="&#xfe;" horiz-adv-x="1339" d="M-37 -328l490 1823h100l-178 -655q191 229 434 229q182 0 301 -123.5t119 -316.5q0 -136 -48.5 -258.5t-129.5 -209t-189 -137.5t-223 -51q-162 0 -266.5 83.5t-149.5 209.5l-160 -594h-100zM274 432q0 -154 101 -259t260 -105q138 0 250 76.5t173.5 202t61.5 269.5 q0 161 -90 260t-233 99q-95 0 -191 -46t-168.5 -120.5t-118 -174.5t-45.5 -202z" />
<glyph unicode="&#xff;" horiz-adv-x="1163" d="M-180 -262l55 82q32 -26 84 -43t94 -17q82 0 161 56t173 190l-213 1038h107l182 -933l629 933h120l-743 -1081q-112 -161 -212.5 -229t-215.5 -68q-117 0 -221 72zM496 1219l45 163h141l-45 -163h-141zM829 1219l45 163h142l-45 -163h-142z" />
<glyph unicode="&#x131;" horiz-adv-x="512" d="M66 0l280 1044h100l-280 -1044h-100z" />
<glyph unicode="&#x152;" horiz-adv-x="2363" d="M188 602q0 163 58 305t166 250q131 131 320.5 204t408.5 73h1329l-27 -99h-880l-152 -563h789l-27 -98h-789l-153 -576h891l-27 -98h-1192q-171 0 -316.5 49t-240.5 144q-158 158 -158 409zM299 610q0 -217 133 -350q162 -162 477 -162h215l332 1237h-330 q-389 0 -634 -245q-193 -193 -193 -480z" />
<glyph unicode="&#x153;" horiz-adv-x="2142" d="M104 438q0 122 50.5 237.5t134 202t199 139t237.5 52.5q172 0 284.5 -94.5t145.5 -239.5q37 69 84.5 126t109 105.5t141 75.5t169.5 27q126 0 217.5 -55.5t134.5 -144.5t43 -199q0 -98 -29 -183h-858q-4 -46 -4 -69q0 -157 95.5 -252.5t250.5 -95.5q110 0 191.5 35 t165.5 104l59 -72q-196 -162 -409 -162q-166 0 -283 87t-150 231q-84 -140 -217 -229t-303 -89q-199 0 -329 131t-130 332zM213 442q0 -174 100.5 -273t266.5 -99q125 0 241 71.5t188 193t72 257.5q0 181 -100 282t-266 101q-129 0 -245.5 -74.5t-186.5 -198t-70 -260.5z M1186 578h758q8 36 8 86q0 135 -75 224t-220 89q-168 0 -296.5 -115t-174.5 -284z" />
<glyph unicode="&#x178;" horiz-adv-x="1368" d="M260 1434h117l330 -770l745 770h143l-862 -879l-147 -555h-107l156 582zM702 1567l46 164h141l-45 -164h-142zM1036 1567l45 164h142l-45 -164h-142z" />
<glyph unicode="&#x192;" horiz-adv-x="1077" d="M-47 -4l27 88q42 -14 96 -14q71 0 125 52t106 167l219 497h-219l25 93h233l121 274q66 153 155 227t210 74q86 0 170 -31l-31 -86q-79 27 -143 27q-85 0 -150 -57t-119 -179l-110 -249h331l-24 -93h-346l-230 -522q-68 -156 -146.5 -220t-184.5 -64q-61 0 -115 16z" />
<glyph unicode="&#x2c6;" d="M455 1219l272 249h82l137 -249h-90l-106 139l-197 -139h-98z" />
<glyph unicode="&#x2c7;" d="M520 1468h90l107 -139l196 139h99l-273 -249h-82z" />
<glyph unicode="&#x2d8;" d="M481 1401q0 31 8 67h82q0 -75 31.5 -112t114.5 -37q144 0 223 149h94q-39 -118 -131.5 -186t-208.5 -68q-98 0 -155.5 49.5t-57.5 137.5z" />
<glyph unicode="&#x2d9;" d="M629 1214l47 175h135l-47 -175h-135z" />
<glyph unicode="&#x2da;" d="M539 1386q0 87 64 148t153 61q87 0 141.5 -47.5t54.5 -120.5q0 -87 -64 -147.5t-153 -60.5q-87 0 -141.5 47t-54.5 120zM612 1386q0 -46 32.5 -74t90.5 -28q60 0 102 41.5t42 101.5q0 46 -32.5 74.5t-90.5 28.5q-60 0 -102 -42t-42 -102z" />
<glyph unicode="&#x2db;" d="M168 -168q0 38 22 91.5t52 96.5h88q-19 -36 -35 -87t-16 -80q0 -116 200 -125l-16 -64q-146 -4 -220.5 42t-74.5 126z" />
<glyph unicode="&#x2dc;" d="M399 1245q51 103 100 150t113 47q29 0 54 -10t40.5 -23t43.5 -39q28 -27 39 -36.5t26.5 -17t32.5 -7.5q30 0 56.5 28.5t64.5 94.5l78 -31q-51 -103 -100 -150t-113 -47q-29 0 -54 10t-40.5 23t-43.5 39q-28 27 -39 36.5t-26.5 17t-32.5 7.5q-30 0 -56.5 -28.5 t-64.5 -94.5z" />
<glyph unicode="&#x2dd;" d="M393 1219l256 272l96 -59l-264 -213h-88zM705 1219l256 272l96 -59l-264 -213h-88z" />
<glyph unicode="&#x3a9;" horiz-adv-x="1622" d="M29 0l24 96h404l49 185q-89 26 -153 95t-94 158.5t-30 188.5q0 161 67.5 299.5t178.5 230t251.5 143.5t287.5 52q240 0 386 -139.5t146 -347.5q0 -240 -162.5 -428t-410.5 -252l-49 -185h403l-24 -96h-492l96 360q109 18 205 68.5t167.5 126.5t113 180t41.5 223 q0 170 -122.5 280t-307.5 110q-128 0 -247.5 -44.5t-212 -123.5t-148.5 -198.5t-56 -258.5q0 -90 29 -166.5t93 -131t154 -65.5l-96 -360h-491z" />
<glyph unicode="&#x3c0;" d="M0 0v1434h1024v-1434h-1024zM100 197l351 520l-351 520v-1040zM166 100h694l-348 523zM166 1331l346 -522l348 522h-694zM571 717l351 -520v1040z" />
<glyph unicode="&#x401;" horiz-adv-x="1329" d="M74 0l385 1434h1009l-26 -99h-903l-152 -563h811l-27 -98h-811l-153 -576h913l-26 -98h-1020zM748 1567l45 164h141l-45 -164h-141zM1081 1567l45 164h142l-45 -164h-142z" />
<glyph unicode="&#x402;" horiz-adv-x="1703" d="M287 1335l26 99h1106l-26 -99h-562l-159 -594q142 92 254.5 132t255.5 40q176 0 292.5 -98.5t116.5 -265.5q0 -161 -71 -291t-205 -206.5t-307 -76.5q-161 0 -228 45l51 89q69 -37 181 -37q142 0 249.5 63.5t162.5 170t55 239.5q0 119 -87 195.5t-218 76.5 q-152 0 -270 -43t-263 -147l-168 -627h-106l358 1335h-438z" />
<glyph unicode="&#x403;" horiz-adv-x="1191" d="M74 0l383 1434h895l-25 -99h-788l-359 -1335h-106zM782 1567l254 272l127 -61l-276 -211h-105z" />
<glyph unicode="&#x404;" horiz-adv-x="1511" d="M188 555q0 172 68 337t182 289.5t273.5 200.5t332.5 76q174 0 302 -72.5t202 -195.5l-92 -53q-72 110 -171 167.5t-247 57.5q-124 0 -241 -47.5t-208.5 -128t-159 -187.5t-101.5 -227h759l-26 -98h-754q-8 -52 -8 -115q0 -222 135.5 -354.5t349.5 -132.5 q151 0 265.5 54.5t220.5 160.5l71 -66q-111 -116 -247 -182t-320 -66q-119 0 -225.5 40.5t-186.5 114t-127 184.5t-47 243z" />
<glyph unicode="&#x405;" horiz-adv-x="1306" d="M41 254l82 59q94 -121 213 -179t287 -58q177 0 295 89t118 224q0 93 -69.5 157t-243.5 132q-227 89 -318.5 171t-91.5 210q0 166 143.5 280.5t370.5 114.5q156 0 286.5 -60t211.5 -159l-82 -66q-162 189 -426 189q-178 0 -286.5 -86t-108.5 -205q0 -96 78 -159t264 -134 q204 -77 292.5 -162t88.5 -215q0 -176 -152 -296.5t-381 -120.5q-190 0 -334.5 72t-236.5 202z" />
<glyph unicode="&#x406;" horiz-adv-x="561" d="M88 0l385 1434h107l-385 -1434h-107z" />
<glyph unicode="&#x407;" horiz-adv-x="561" d="M88 0l385 1434h107l-385 -1434h-107zM313 1567l45 164h142l-45 -164h-142zM647 1567l45 164h142l-46 -164h-141z" />
<glyph unicode="&#x408;" horiz-adv-x="1101" d="M-10 309l94 33q41 -134 116 -200t197 -66q154 0 260 106q102 102 160 314l252 938h107l-256 -953q-63 -238 -191 -366q-65 -65 -152 -100t-176 -35q-170 0 -271.5 90.5t-139.5 238.5z" />
<glyph unicode="&#x409;" horiz-adv-x="2379" d="M-152 25l54 84q48 -25 129 -25q29 0 54.5 6t66 31.5t79 68.5t88.5 124t98 191t105 278t113 376l74 275h878l-155 -578h370q258 0 381 -123q92 -92 92 -241q0 -233 -184.5 -362.5t-503.5 -129.5h-491l358 1335h-670l-49 -180q-58 -217 -116 -391t-109.5 -295t-105 -209.5 t-99.5 -140.5t-96.5 -82.5t-91.5 -40.5t-90 -10q-52 0 -102.5 11.5t-76.5 27.5zM1229 98h362q279 0 428.5 100.5t149.5 288.5q0 109 -68 177q-94 94 -301 94h-395z" />
<glyph unicode="&#x40a;" horiz-adv-x="2371" d="M74 0l385 1434h106l-164 -607h908l164 607h106l-166 -607h395q253 0 371 -118q88 -88 88 -232q0 -227 -180 -352t-494 -125h-506l195 729h-907l-195 -729h-106zM1219 98h378q272 0 418 97t146 278q0 102 -64 166q-90 90 -291 90h-417z" />
<glyph unicode="&#x40b;" horiz-adv-x="1736" d="M287 1335l26 99h1106l-26 -99h-562l-153 -571q113 54 254 99.5t248 45.5q180 0 286.5 -74.5t106.5 -216.5q0 -55 -17 -116l-133 -502h-106l137 512q12 46 12 84q0 103 -75 162t-209 59q-112 0 -257 -44.5t-274 -108.5l-178 -664h-106l358 1335h-438z" />
<glyph unicode="&#x40c;" horiz-adv-x="1462" d="M74 0l385 1434h106l-250 -932l1147 932h158l-797 -641l434 -793h-122l-400 731l-459 -373l-96 -358h-106zM848 1567l254 272l127 -61l-277 -211h-104z" />
<glyph unicode="&#x40e;" horiz-adv-x="1454" d="M10 29l62 88q40 -23 77.5 -32t98.5 -9q198 0 389 254l-348 1104h114l312 -1004l758 1004h124l-866 -1143q-238 -316 -487 -316q-161 0 -234 54zM709 1798l86 19q10 -74 45.5 -112t111.5 -38q79 0 139.5 40t88.5 110l82 -19q-33 -101 -119 -166t-193 -65t-171.5 64.5 t-69.5 166.5z" />
<glyph unicode="&#x40f;" horiz-adv-x="1519" d="M74 0l385 1434h106l-358 -1336h878l359 1336h106l-385 -1434h-471l-88 -328h-110l88 328h-510z" />
<glyph unicode="&#x410;" horiz-adv-x="1554" d="M-70 0l1055 1444h102l281 -1444h-108l-74 401h-846l-291 -401h-119zM410 498h755l-153 829z" />
<glyph unicode="&#x411;" horiz-adv-x="1433" d="M74 0l385 1434h977l-25 -99h-872l-138 -508h445q253 0 371 -118q88 -88 88 -232q0 -227 -180 -352t-494 -125h-557zM207 98h428q272 0 417.5 97t145.5 278q0 103 -63 166q-90 90 -291 90h-467z" />
<glyph unicode="&#x412;" horiz-adv-x="1468" d="M74 0l385 1434h530q197 0 313.5 -87t116.5 -239q0 -102 -52 -184t-136 -132t-191 -71q123 -32 199 -106.5t76 -192.5q0 -187 -161.5 -304.5t-434.5 -117.5h-645zM207 98h518q222 0 351.5 86.5t129.5 237.5q0 122 -105 187t-274 65h-467zM387 772h442q217 0 348.5 90 t131.5 236q0 117 -86.5 177t-243.5 60h-440z" />
<glyph unicode="&#x413;" horiz-adv-x="1191" d="M74 0l383 1434h895l-25 -99h-788l-359 -1335h-106z" />
<glyph unicode="&#x414;" horiz-adv-x="1538" d="M-205 -328l115 426h143q153 156 281.5 409.5t220.5 584.5l94 342h879l-359 -1336h195l-135 -426h-90l88 328h-1235l-107 -328h-90zM184 98h879l332 1237h-670l-88 -321q-77 -289 -195.5 -530t-257.5 -386z" />
<glyph unicode="&#x415;" horiz-adv-x="1329" d="M74 0l385 1434h1009l-26 -99h-903l-152 -563h811l-27 -98h-811l-153 -576h913l-26 -98h-1020z" />
<glyph unicode="&#x416;" horiz-adv-x="2195" d="M-88 0l823 827l-389 607h123l578 -914l243 914h107l-240 -902l1047 902h149l-733 -621l385 -813h-121l-348 741l-420 -354l-102 -387h-107l105 399l-221 342l-736 -741h-143z" />
<glyph unicode="&#x417;" horiz-adv-x="1228" d="M14 233l92 56q142 -217 433 -217q181 0 297 91t116 224q0 59 -22 108t-59.5 82t-87 55.5t-103 33t-109.5 10.5h-122l24 94h143q211 0 346.5 88t135.5 236q0 121 -94 192.5t-242 71.5q-117 0 -210 -36t-179 -105l-66 71q205 166 455 166q122 0 222.5 -40.5t163 -122 t62.5 -191.5q0 -157 -114.5 -254.5t-317.5 -130.5q127 -37 207 -118t80 -206q0 -116 -71 -211.5t-193 -150t-269 -54.5q-178 0 -312 70t-206 188z" />
<glyph unicode="&#x418;" horiz-adv-x="1568" d="M74 0l385 1434h106l-342 -1272l1272 1272h104l-382 -1434h-107l340 1272l-1270 -1272h-106z" />
<glyph unicode="&#x419;" horiz-adv-x="1568" d="M74 0l385 1434h106l-342 -1272l1272 1272h104l-382 -1434h-107l340 1272l-1270 -1272h-106zM774 1798l86 19q10 -74 46 -112t112 -38q79 0 139 40t88 110l82 -19q-33 -101 -118.5 -166t-192.5 -65t-172 64.5t-70 166.5z" />
<glyph unicode="&#x41a;" horiz-adv-x="1462" d="M74 0l385 1434h106l-250 -932l1147 932h158l-797 -641l434 -793h-122l-400 731l-459 -373l-96 -358h-106z" />
<glyph unicode="&#x41b;" horiz-adv-x="1556" d="M-152 25l54 84q48 -25 129 -25q29 0 54.5 6t66 31.5t79 68.5t88.5 124t98 191t105 278t113 376l74 275h878l-385 -1434h-106l358 1335h-670l-49 -180q-58 -217 -116 -391t-109.5 -295t-105 -209.5t-99.5 -140.5t-96.5 -82.5t-91.5 -40.5t-90 -10q-52 0 -102.5 11.5 t-76.5 27.5z" />
<glyph unicode="&#x41c;" horiz-adv-x="1779" d="M74 0l385 1434h88l348 -848l803 848h112l-385 -1434h-106l334 1245l-789 -825h-8l-346 825l-334 -1245h-102z" />
<glyph unicode="&#x41d;" horiz-adv-x="1548" d="M74 0l385 1434h106l-178 -664h907l179 664h106l-385 -1434h-107l181 672h-908l-180 -672h-106z" />
<glyph unicode="&#x41e;" horiz-adv-x="1732" d="M197 590q0 166 65.5 324.5t175 278t263.5 192.5t321 73q133 0 248.5 -48t196.5 -130t127 -196t46 -242q0 -166 -65.5 -325t-175 -278.5t-263.5 -192.5t-321 -73q-178 0 -320 82t-220 222.5t-78 312.5zM307 590q0 -223 141.5 -371.5t366.5 -148.5q147 0 281 65.5 t228.5 172.5t150 247t55.5 287q0 223 -141.5 371.5t-366.5 148.5q-147 0 -281 -65.5t-228.5 -172.5t-150 -247t-55.5 -287z" />
<glyph unicode="&#x41f;" horiz-adv-x="1519" d="M74 0l385 1434h1091l-385 -1434h-106l358 1335h-878l-359 -1335h-106z" />
<glyph unicode="&#x420;" horiz-adv-x="1357" d="M74 0l385 1434h446q266 0 395 -129q99 -99 99 -256q0 -242 -190 -377t-519 -135h-364l-146 -537h-106zM350 633h344q288 0 443 107t155 304q0 118 -73 191q-100 100 -316 100h-364z" />
<glyph unicode="&#x421;" horiz-adv-x="1511" d="M188 555q0 172 68 337t182 289.5t273.5 200.5t332.5 76q188 0 322.5 -84.5t204.5 -224.5l-92 -49q-74 129 -177.5 195.5t-263.5 66.5q-151 0 -289.5 -68.5t-236 -180.5t-155.5 -257.5t-58 -296.5q0 -222 135.5 -354.5t349.5 -132.5q151 0 265.5 54.5t220.5 160.5l71 -66 q-111 -116 -247 -182t-320 -66q-119 0 -225.5 40.5t-186.5 114t-127 184.5t-47 243z" />
<glyph unicode="&#x422;" horiz-adv-x="1259" d="M287 1335l26 99h1106l-26 -99h-500l-358 -1335h-107l358 1335h-499z" />
<glyph unicode="&#x423;" horiz-adv-x="1454" d="M10 29l62 88q40 -23 77.5 -32t98.5 -9q198 0 389 254l-348 1104h114l312 -1004l758 1004h124l-866 -1143q-238 -316 -487 -316q-161 0 -234 54z" />
<glyph unicode="&#x424;" horiz-adv-x="1765" d="M145 645q0 106 34.5 207t102.5 188t162.5 152.5t222.5 103t273 37.5h104l39 146h107l-39 -146q137 -1 246.5 -44.5t179 -117.5t106.5 -170t37 -206q0 -106 -34 -207.5t-102.5 -188.5t-162.5 -152.5t-222 -103t-273 -37.5h-103l-43 -159h-106l43 159q-137 1 -247.5 44 t-180.5 117.5t-107 171t-37 206.5zM256 651q0 -96 31.5 -177.5t91 -142t152.5 -94.5t210 -34l277 1034h-92q-155 0 -282.5 -45.5t-211.5 -125t-130 -186.5t-46 -229zM848 203h92q155 0 282.5 45.5t211.5 124.5t130 186t46 229q0 96 -31.5 177.5t-91.5 142t-153 95t-210 34.5 z" />
<glyph unicode="&#x425;" horiz-adv-x="1417" d="M-47 0l749 741l-380 693h114l342 -631l635 631h137l-721 -711l394 -723h-115l-354 662l-664 -662h-137z" />
<glyph unicode="&#x426;" horiz-adv-x="1560" d="M74 0l385 1434h106l-358 -1336h878l359 1336h106l-360 -1336h194l-135 -426h-90l88 328h-1173z" />
<glyph unicode="&#x427;" horiz-adv-x="1400" d="M238 784q0 60 16 117l141 533h107l-146 -543q-12 -47 -12 -84q0 -103 75.5 -162t209.5 -59q204 0 510 153l186 695h107l-383 -1434h-107l170 639q-303 -145 -481 -145q-181 0 -287 74t-106 216z" />
<glyph unicode="&#x428;" horiz-adv-x="2254" d="M74 0l385 1434h106l-358 -1336h751l359 1336h106l-358 -1336h754l360 1336h107l-385 -1434h-1827z" />
<glyph unicode="&#x429;" horiz-adv-x="2295" d="M74 0l385 1434h106l-358 -1336h751l359 1336h106l-358 -1336h754l360 1336h107l-359 -1336h195l-135 -426h-91l89 328h-1911z" />
<glyph unicode="&#x42a;" horiz-adv-x="1603" d="M287 1335l26 99h498l-156 -578h371q258 0 381 -123q92 -92 92 -241q0 -233 -184.5 -362.5t-503.5 -129.5h-492l359 1335h-391zM453 98h362q279 0 428.5 100.5t149.5 288.5q0 109 -68 177q-94 94 -301 94h-395z" />
<glyph unicode="&#x42b;" horiz-adv-x="1781" d="M74 0l385 1434h106l-155 -578h370q258 0 381 -123q92 -92 92 -241q0 -233 -184.5 -362.5t-503.5 -129.5h-491zM207 98h362q279 0 428.5 100.5t149.5 288.5q0 109 -68 177q-94 94 -301 94h-395zM1323 0l383 1434h106l-382 -1434h-107z" />
<glyph unicode="&#x42c;" horiz-adv-x="1357" d="M74 0l385 1434h106l-155 -578h370q258 0 381 -123q92 -92 92 -241q0 -233 -184.5 -362.5t-503.5 -129.5h-491zM207 98h362q279 0 428.5 100.5t149.5 288.5q0 109 -68 177q-94 94 -301 94h-395z" />
<glyph unicode="&#x42d;" horiz-adv-x="1511" d="M57 283l93 49q74 -129 177 -195.5t263 -66.5q129 0 246.5 47.5t207 130t153 192t91.5 234.5h-743l26 98h734q4 54 4 80q0 224 -137 366t-349 142q-151 0 -265 -54.5t-220 -160.5l-72 65q110 115 247 181.5t321 66.5q159 0 291.5 -74t213 -213t80.5 -315 q0 -172 -64.5 -333.5t-174.5 -282.5t-266.5 -194t-329.5 -73q-188 0 -322.5 85t-204.5 225z" />
<glyph unicode="&#x42e;" horiz-adv-x="2131" d="M74 0l385 1434h106l-180 -664h322q41 195 152.5 352t272 246.5t338.5 89.5q128 0 235.5 -45.5t180.5 -125t113.5 -189.5t40.5 -238q0 -180 -63.5 -344.5t-170 -283t-251 -189t-300.5 -70.5q-170 0 -300 78t-199.5 213.5t-69.5 306.5q0 49 6 101h-332l-180 -672h-106z M799 573q0 -221 124.5 -362t331.5 -141q135 0 259.5 64t214.5 171t144 252.5t54 302.5q0 221 -125 361.5t-332 140.5q-134 0 -258.5 -63.5t-214.5 -170t-144 -252t-54 -303.5z" />
<glyph unicode="&#x42f;" horiz-adv-x="1460" d="M-18 0l606 586q-150 29 -226 108q-92 92 -92 244q0 233 186 364.5t505 131.5h530l-383 -1434h-107l154 571h-446l-586 -571h-141zM377 942q0 -111 67 -178q94 -94 304 -94h432l180 665h-404q-279 0 -429 -102.5t-150 -290.5z" />
<glyph unicode="&#x430;" horiz-adv-x="1169" d="M47 268q0 171 131.5 275t339.5 104q190 0 402 -59l8 28q14 54 14 105q0 119 -81 182.5t-234 63.5q-143 0 -303 -56l-19 90q165 60 330 60q191 0 298 -87t107 -239q0 -59 -20 -137l-160 -598h-98l47 180q-172 -205 -420 -205q-90 0 -166 31.5t-126 100t-50 161.5zM154 281 q0 -97 68.5 -155t185.5 -58q153 0 288.5 97t177.5 251l25 92q-192 49 -395 49q-156 0 -253 -77t-97 -199z" />
<glyph unicode="&#x431;" horiz-adv-x="1314" d="M129 438q0 94 16.5 195.5t58 215t103 207t160.5 166.5t221 99l612 131l23 -90l-604 -135q-170 -38 -268.5 -132.5t-153.5 -265.5h8q82 95 193.5 151t240.5 56q209 0 337 -123t128 -321q0 -119 -53 -233.5t-137.5 -198t-195 -134.5t-220.5 -51q-116 0 -206.5 36t-147.5 99 t-86 146.5t-29 181.5zM236 432q0 -157 92.5 -259.5t269.5 -102.5q120 0 234.5 72.5t188 195.5t73.5 258q0 161 -98 255.5t-271 94.5q-96 0 -186.5 -41.5t-156.5 -110.5t-106 -164.5t-40 -197.5z" />
<glyph unicode="&#x432;" horiz-adv-x="1187" d="M51 0l281 1044h440q143 0 228 -63t85 -174q0 -109 -76.5 -178t-199.5 -94q87 -22 144 -81t57 -147q0 -136 -118.5 -221.5t-318.5 -85.5h-522zM174 90h391q156 0 247 59.5t91 163.5q0 84 -73.5 131.5t-190.5 47.5h-356zM305 578h336q152 0 244 60.5t92 160.5 q0 78 -59.5 116.5t-167.5 38.5h-342z" />
<glyph unicode="&#x433;" horiz-adv-x="942" d="M51 0l281 1044h690l-25 -90h-589l-256 -954h-101z" />
<glyph unicode="&#x434;" horiz-adv-x="1245" d="M-178 -295l100 385h127q224 256 350 733l60 221h700l-256 -954h168l-123 -385h-82l80 295h-942l-100 -295h-82zM160 90h643l233 864h-504l-51 -188q-57 -208 -143.5 -389.5t-177.5 -286.5z" />
<glyph unicode="&#x435;" horiz-adv-x="1193" d="M102 414q0 121 47.5 239.5t127 210.5t193 148.5t237.5 56.5q126 0 217.5 -55.5t134.5 -144.5t43 -199q0 -98 -29 -183h-858q-4 -46 -4 -69q0 -157 95.5 -252.5t250.5 -95.5q110 0 191 35t165 104l60 -72q-95 -78 -190.5 -120t-225.5 -42q-200 0 -327.5 123t-127.5 316z M233 578h758q8 36 8 86q0 135 -74.5 224t-219.5 89q-168 0 -297 -115t-175 -284z" />
<glyph unicode="&#x436;" horiz-adv-x="1703" d="M-88 0l608 600l-289 444h115l422 -665l178 665h101l-177 -659l766 659h136l-539 -456l283 -588h-113l-248 522l-319 -270l-68 -252h-100l71 266l-168 258l-526 -524h-133z" />
<glyph unicode="&#x437;" d="M8 135l76 82q143 -143 336 -143q124 0 223.5 73t99.5 177q0 77 -67 121t-189 44h-143l25 91h135q121 0 210 64t89 169q0 71 -61.5 113.5t-159.5 42.5q-84 0 -175.5 -26.5t-168.5 -80.5l-45 80q183 121 399 121q145 0 234 -71.5t89 -176.5q0 -188 -215 -272 q71 -26 112.5 -85.5t41.5 -135.5q0 -143 -121.5 -242.5t-314.5 -99.5q-118 0 -224.5 39.5t-185.5 115.5z" />
<glyph unicode="&#x438;" horiz-adv-x="1275" d="M51 0l281 1044h100l-242 -899l934 899h101l-281 -1044h-100l243 903l-935 -903h-101z" />
<glyph unicode="&#x439;" horiz-adv-x="1275" d="M51 0l281 1044h100l-242 -899l934 899h101l-281 -1044h-100l243 903l-935 -903h-101zM553 1450l86 18q10 -73 46 -111t112 -38q79 0 139 40t88 109l82 -18q-33 -101 -118.5 -166t-192.5 -65t-172 64.5t-70 166.5z" />
<glyph unicode="&#x43a;" horiz-adv-x="1146" d="M51 0l281 1044h100l-176 -657l811 657h145l-581 -466l311 -578h-117l-278 516l-328 -262l-67 -254h-101z" />
<glyph unicode="&#x43b;" horiz-adv-x="1243" d="M-129 2l41 90q9 -5 34 -9.5t40 -4.5q34 0 59 5.5t57.5 26.5t60.5 59t63.5 105t71.5 162.5t80 234.5t93 318l16 55h705l-281 -1044h-100l256 954h-508l-8 -28q-49 -183 -94.5 -324t-84 -240.5t-78 -169t-73 -110t-74 -62.5t-74 -29t-79.5 -7q-85 0 -123 18z" />
<glyph unicode="&#x43c;" horiz-adv-x="1413" d="M51 0l281 1044h80l262 -606l594 606h96l-281 -1044h-100l234 870l-574 -577l-258 581l-233 -874h-101z" />
<glyph unicode="&#x43d;" horiz-adv-x="1261" d="M51 0l281 1044h100l-125 -464h678l125 464h100l-280 -1044h-101l132 489h-678l-131 -489h-101z" />
<glyph unicode="&#x43e;" horiz-adv-x="1296" d="M104 438q0 122 50.5 237.5t134 202t199 139t237.5 52.5q206 0 335.5 -130.5t129.5 -332.5q0 -125 -52 -242t-137 -201.5t-199 -136t-233 -51.5q-206 0 -335.5 130.5t-129.5 332.5zM213 442q0 -174 100.5 -273t266.5 -99q126 0 241.5 72t187.5 195.5t72 264.5 q0 174 -100.5 273.5t-265.5 99.5q-129 0 -245.5 -74.5t-186.5 -198t-70 -260.5z" />
<glyph unicode="&#x43f;" horiz-adv-x="1234" d="M51 0l281 1044h852l-281 -1044h-100l256 954h-651l-256 -954h-101z" />
<glyph unicode="&#x440;" horiz-adv-x="1339" d="M-37 -328l369 1372h98l-55 -204q191 229 434 229q182 0 301 -123.5t119 -316.5q0 -136 -48.5 -258.5t-129.5 -209t-189 -137.5t-223 -51q-162 0 -266.5 83.5t-149.5 209.5l-160 -594h-100zM274 432q0 -154 101 -259t260 -105q138 0 250 76.5t173.5 202t61.5 269.5 q0 161 -90 260t-233 99q-95 0 -191 -46t-168.5 -120.5t-118 -174.5t-45.5 -202z" />
<glyph unicode="&#x441;" horiz-adv-x="1153" d="M102 426q0 168 84 316.5t226.5 237.5t304.5 89q149 0 252.5 -71.5t156.5 -180.5l-84 -47q-54 95 -132 150t-199 55q-130 0 -246 -75.5t-185 -201t-69 -266.5q0 -86 29.5 -156t78.5 -114t112 -68t132 -24q179 0 338 149l68 -65q-186 -179 -412 -179q-69 0 -135 19 t-124 57.5t-101.5 91.5t-69 126t-25.5 157z" />
<glyph unicode="&#x442;" horiz-adv-x="1005" d="M164 954l24 90h883l-24 -90h-392l-256 -954h-100l256 954h-391z" />
<glyph unicode="&#x443;" horiz-adv-x="1163" d="M-180 -262l55 82q32 -26 84 -43t94 -17q82 0 161 56t173 190l-213 1038h107l182 -933l629 933h120l-743 -1081q-112 -161 -212.5 -229t-215.5 -68q-117 0 -221 72z" />
<glyph unicode="&#x444;" horiz-adv-x="1751" d="M92 332q0 79 16 163t47 167t79.5 156t109.5 129.5t142.5 89t172.5 32.5q88 0 159.5 -37.5t119.5 -95.5l131 498h100l-129 -488q54 42 88 64t89 40.5t116 18.5q148 0 237 -99t89 -272q0 -79 -16 -162t-47 -164.5t-79.5 -152.5t-109.5 -126t-142.5 -86.5t-172.5 -31.5 q-177 0 -281 119l-113 -422h-100l113 422q-144 -119 -293 -119q-151 0 -238.5 90.5t-87.5 266.5zM199 336q0 -122 59.5 -193t179.5 -71q147 0 303 133l172 643q-40 60 -106 92.5t-148 32.5q-89 0 -166 -39.5t-130 -104.5t-91 -148.5t-55.5 -171t-17.5 -173.5zM838 197 q40 -60 106 -92.5t148 -32.5q91 0 167.5 38t128.5 101t89 144.5t54 168.5t17 174q0 125 -59.5 200t-175.5 75q-152 0 -299 -125z" />
<glyph unicode="&#x445;" horiz-adv-x="1144" d="M-59 0l581 541l-276 503h114l230 -440l459 440h135l-549 -512l289 -532h-115l-242 469l-491 -469h-135z" />
<glyph unicode="&#x446;" horiz-adv-x="1269" d="M51 0l281 1044h100l-256 -954h651l256 954h101l-256 -954h168l-125 -385h-82l80 295h-918z" />
<glyph unicode="&#x447;" horiz-adv-x="1138" d="M166 575q0 48 14 97l101 372h100l-105 -393q-10 -38 -10 -63q0 -68 49.5 -107t139.5 -39q93 0 202.5 32t198.5 83l131 487h100l-280 -1044h-100l122 457q-219 -107 -389 -107q-128 0 -201 60t-73 165z" />
<glyph unicode="&#x448;" horiz-adv-x="1822" d="M51 0l281 1044h100l-256 -954h569l256 954h101l-256 -954h569l256 954h101l-281 -1044h-1440z" />
<glyph unicode="&#x449;" horiz-adv-x="1857" d="M51 0l281 1044h100l-256 -954h569l256 954h101l-256 -954h569l256 954h101l-256 -954h167l-124 -385h-82l79 295h-1505z" />
<glyph unicode="&#x44a;" horiz-adv-x="1267" d="M164 954l24 90h428l-112 -419h299q188 0 278 -90q68 -68 68 -177q0 -170 -134.5 -264t-367.5 -94h-411l256 954h-328zM360 90h279q194 0 298.5 69t104.5 195q0 63 -37.5 105.5t-91.5 59t-120 16.5h-314z" />
<glyph unicode="&#x44b;" horiz-adv-x="1501" d="M51 0l281 1044h100l-113 -419h297q189 0 279 -90q68 -68 68 -177q0 -170 -134.5 -264t-367.5 -94h-410zM176 90h277q194 0 298.5 69t104.5 195q0 92 -73 136.5t-177 44.5h-311zM1069 0l281 1044h100l-281 -1044h-100z" />
<glyph unicode="&#x44c;" horiz-adv-x="1083" d="M51 0l281 1044h100l-113 -419h299q189 0 279 -90q68 -68 68 -177q0 -170 -134.5 -264t-367.5 -94h-412zM176 90h279q194 0 298.5 69t104.5 195q0 92 -73 136.5t-177 44.5h-313z" />
<glyph unicode="&#x44d;" horiz-adv-x="1150" d="M20 227l84 47q35 -61 75.5 -103.5t107 -71.5t149.5 -29q168 0 306 121t180 298h-525l23 91h514q2 10 2 32q0 113 -50.5 197.5t-129.5 125t-172 40.5q-174 0 -324 -137l-59 73q175 158 389 158q87 0 168 -30.5t145 -86.5t102.5 -143t38.5 -191q0 -168 -84 -316.5 t-226 -237.5t-304 -89q-149 0 -253.5 71.5t-156.5 180.5z" />
<glyph unicode="&#x44e;" horiz-adv-x="1667" d="M51 0l279 1044h100l-127 -473h246q23 102 76 192.5t127 158.5t172 107.5t204 39.5q198 0 315.5 -124.5t117.5 -317.5q0 -127 -46 -246t-124 -208.5t-190 -143.5t-236 -54q-197 0 -315 124t-118 317q0 28 3 63h-256l-127 -479h-101zM641 422q0 -163 88.5 -257.5 t245.5 -94.5q130 0 240.5 76.5t173.5 203.5t63 273q0 161 -89 256.5t-245 95.5q-132 0 -243 -78t-172.5 -204.5t-61.5 -270.5z" />
<glyph unicode="&#x44f;" horiz-adv-x="1167" d="M-20 0l434 418q-109 24 -168.5 92t-59.5 174q0 169 135 264.5t367 95.5h428l-278 -1044h-101l109 408h-320l-415 -408h-131zM279 682q0 -88 65.5 -136t187.5 -48h338l123 456h-307q-196 0 -301.5 -70.5t-105.5 -201.5z" />
<glyph unicode="&#x451;" horiz-adv-x="1193" d="M102 414q0 121 47.5 239.5t127 210.5t193 148.5t237.5 56.5q126 0 217.5 -55.5t134.5 -144.5t43 -199q0 -98 -29 -183h-858q-4 -46 -4 -69q0 -157 95.5 -252.5t250.5 -95.5q110 0 191 35t165 104l60 -72q-95 -78 -190.5 -120t-225.5 -42q-200 0 -327.5 123t-127.5 316z M233 578h758q8 36 8 86q0 135 -74.5 224t-219.5 89q-168 0 -297 -115t-175 -284zM516 1219l45 163h141l-45 -163h-141zM850 1219l45 163h141l-45 -163h-141z" />
<glyph unicode="&#x452;" horiz-adv-x="1247" d="M51 0l320 1190h-172l24 90h172l58 215h100l-57 -215h467l-25 -90h-467l-92 -340q87 105 180 162t215 57q155 0 248.5 -90.5t93.5 -241.5q0 -57 -22 -147l-62 -230q-53 -195 -161 -290t-300 -95q-128 0 -206 48l51 86q68 -39 168 -39q135 0 221.5 74.5t130.5 234.5l61 219 q17 66 17 129q0 117 -72 184.5t-197 67.5q-136 0 -263.5 -111t-172.5 -278l-157 -590h-101z" />
<glyph unicode="&#x453;" horiz-adv-x="942" d="M51 0l281 1044h690l-25 -90h-589l-256 -954h-101zM567 1219l254 272l127 -61l-276 -211h-105z" />
<glyph unicode="&#x454;" horiz-adv-x="1153" d="M102 426q0 168 84 316.5t226.5 237.5t304.5 89q138 0 236.5 -61t156.5 -160l-86 -49q-113 176 -313 176q-162 0 -298 -113.5t-182 -281.5h537l-23 -91h-532q-2 -20 -2 -57q0 -86 29.5 -156t78.5 -114t112 -68t132 -24q110 0 194 38.5t163 112.5l67 -65 q-89 -86 -191 -133.5t-239 -47.5q-69 0 -135 19t-124 57.5t-101.5 91.5t-69 126t-25.5 157z" />
<glyph unicode="&#x455;" horiz-adv-x="1013" d="M2 158l72 71q165 -159 383 -159q105 0 187.5 58t82.5 148q0 64 -48.5 111t-178.5 96q-156 58 -224.5 120t-68.5 161q0 128 107 215.5t280 87.5q104 0 205 -39.5t172 -99.5l-66 -76q-65 54 -149.5 88.5t-171.5 34.5q-125 0 -198 -58t-73 -137q0 -63 47.5 -106.5 t188.5 -98.5q157 -62 221 -125t64 -157q0 -89 -53.5 -162t-142.5 -113.5t-194 -40.5q-123 0 -238.5 46.5t-203.5 134.5z" />
<glyph unicode="&#x456;" horiz-adv-x="512" d="M66 0l280 1044h100l-280 -1044h-100zM408 1317l36 137h125l-37 -137h-124z" />
<glyph unicode="&#x457;" horiz-adv-x="512" d="M66 0l280 1044h100l-280 -1044h-100zM188 1219l45 163h142l-45 -163h-142zM522 1219l45 163h142l-45 -163h-142z" />
<glyph unicode="&#x458;" horiz-adv-x="509" d="M-236 -313l25 90q62 -17 96 -17q115 0 154 142l307 1142h100l-309 -1150q-29 -108 -92.5 -168t-150.5 -60q-66 0 -130 21zM408 1317l36 137h125l-37 -137h-124z" />
<glyph unicode="&#x459;" horiz-adv-x="1843" d="M-129 2l41 90q9 -5 34 -9.5t40 -4.5q34 0 59 5.5t57.5 26.5t60.5 59t63.5 105t71.5 162.5t80 234.5t93 318l16 55h705l-113 -419h299q189 0 279 -90q67 -67 67 -177q0 -170 -134 -264t-367 -94h-412l256 954h-508l-8 -28q-49 -183 -94.5 -324t-84 -240.5t-78 -169 t-73 -110t-74 -62.5t-74 -29t-79.5 -7q-85 0 -123 18zM936 90h278q194 0 299 69t105 195q0 92 -73 136.5t-177 44.5h-313z" />
<glyph unicode="&#x45a;" horiz-adv-x="1861" d="M51 0l281 1044h100l-119 -446h678l119 446h100l-118 -446h305q160 0 253 -67.5t93 -192.5q0 -156 -135.5 -247t-366.5 -91h-412l138 508h-678l-137 -508h-101zM954 90h279q192 0 297.5 66t105.5 178q0 88 -73 131t-177 43h-319z" />
<glyph unicode="&#x45b;" horiz-adv-x="1247" d="M51 0l320 1190h-172l24 90h172l58 215h100l-57 -215h467l-25 -90h-467l-92 -340q87 105 180 162t215 57q155 0 248.5 -90.5t93.5 -241.5q0 -57 -22 -147l-156 -590h-100l159 598q17 66 17 129q0 117 -72 184.5t-197 67.5q-136 0 -263.5 -111t-172.5 -278l-157 -590h-101z " />
<glyph unicode="&#x45c;" horiz-adv-x="1146" d="M51 0l281 1044h100l-176 -657l811 657h145l-581 -466l311 -578h-117l-278 516l-328 -262l-67 -254h-101zM608 1219l254 272l127 -61l-276 -211h-105z" />
<glyph unicode="&#x45e;" horiz-adv-x="1163" d="M-180 -262l55 82q32 -26 84 -43t94 -17q82 0 161 56t173 190l-213 1038h107l182 -933l629 933h120l-743 -1081q-112 -161 -212.5 -229t-215.5 -68q-117 0 -221 72zM471 1450l86 18q10 -73 46 -111t112 -38q79 0 139 40t88 109l82 -18q-33 -101 -118.5 -166t-192.5 -65 t-172 64.5t-70 166.5z" />
<glyph unicode="&#x45f;" horiz-adv-x="1234" d="M53 0l279 1044h100l-254 -954h651l254 954h101l-279 -1044h-366l-80 -295h-103l80 295h-383z" />
<glyph unicode="&#x490;" horiz-adv-x="1191" d="M74 0l385 1434h784l88 327h90l-94 -426h-788l-359 -1335h-106z" />
<glyph unicode="&#x491;" horiz-adv-x="942" d="M51 0l281 1044h586l79 295h82l-82 -385h-589l-256 -954h-101z" />
<glyph unicode="&#x2000;" horiz-adv-x="919" />
<glyph unicode="&#x2001;" horiz-adv-x="1839" />
<glyph unicode="&#x2002;" horiz-adv-x="919" />
<glyph unicode="&#x2003;" horiz-adv-x="1839" />
<glyph unicode="&#x2004;" horiz-adv-x="613" />
<glyph unicode="&#x2005;" horiz-adv-x="459" />
<glyph unicode="&#x2006;" horiz-adv-x="306" />
<glyph unicode="&#x2007;" horiz-adv-x="306" />
<glyph unicode="&#x2008;" horiz-adv-x="229" />
<glyph unicode="&#x2009;" horiz-adv-x="367" />
<glyph unicode="&#x200a;" horiz-adv-x="102" />
<glyph unicode="&#x2010;" horiz-adv-x="837" d="M152 551l30 115h549l-31 -115h-548z" />
<glyph unicode="&#x2011;" horiz-adv-x="837" d="M152 551l30 115h549l-31 -115h-548z" />
<glyph unicode="&#x2012;" horiz-adv-x="837" d="M152 551l30 115h549l-31 -115h-548z" />
<glyph unicode="&#x2013;" horiz-adv-x="1081" d="M152 555l28 107h795l-29 -107h-794z" />
<glyph unicode="&#x2014;" horiz-adv-x="1839" d="M152 555l28 107h1553l-29 -107h-1552z" />
<glyph unicode="&#x2018;" horiz-adv-x="473" d="M301 1051l41 151q29 106 81 158t155 82l14 -49q-143 -50 -164 -168h55l-47 -174h-135z" />
<glyph unicode="&#x2019;" horiz-adv-x="473" d="M268 1092q143 50 164 168h-55l47 174h135l-41 -152q-31 -107 -82 -159t-153 -81z" />
<glyph unicode="&#x201a;" horiz-adv-x="473" d="M-80 -168q143 50 164 168h-55l47 174h135l-41 -151q-31 -106 -82.5 -158.5t-153.5 -81.5z" />
<glyph unicode="&#x201c;" horiz-adv-x="841" d="M299 1051l41 151q29 106 81 158t154 82l15 -49q-143 -50 -164 -168h55l-47 -174h-135zM668 1051l41 151q29 106 81 158t154 82l14 -49q-142 -50 -163 -168h55l-47 -174h-135z" />
<glyph unicode="&#x201d;" horiz-adv-x="841" d="M246 1092q143 50 164 168h-56l47 174h136l-41 -152q-31 -106 -82.5 -158.5t-153.5 -81.5zM614 1092q143 50 164 168h-55l47 174h135l-41 -152q-31 -107 -82 -159t-153 -81z" />
<glyph unicode="&#x201e;" horiz-adv-x="843" d="M-80 -168q143 50 164 168h-55l47 174h135l-41 -151q-31 -106 -82.5 -158.5t-153.5 -81.5zM291 -168q143 50 164 168h-56l47 174h136l-41 -151q-31 -106 -82.5 -158.5t-153.5 -81.5z" />
<glyph unicode="&#x2020;" horiz-adv-x="839" d="M236 1059l24 92l250 -14l65 297h103l-94 -297l258 14l-25 -92l-254 14l-145 -586h-90l166 586z" />
<glyph unicode="&#x2021;" horiz-adv-x="880" d="M47 283l25 92l252 -15l86 357l104 356l-258 -14l25 92l249 -14l66 297h102l-94 -297l258 14l-24 -92l-254 14l-84 -356l-107 -357l260 15l-24 -92l-250 14l-66 -297h-102l94 297z" />
<glyph unicode="&#x2022;" horiz-adv-x="962" d="M260 678q0 125 87.5 217t205.5 92q95 0 155 -61t60 -162q0 -125 -87.5 -217t-205.5 -92q-95 0 -155 61t-60 162z" />
<glyph unicode="&#x2026;" horiz-adv-x="1398" d="M29 0l47 174h135l-47 -174h-135zM492 0l47 174h135l-47 -174h-135zM954 0l47 174h136l-47 -174h-136z" />
<glyph unicode="&#x202f;" horiz-adv-x="367" />
<glyph unicode="&#x2030;" horiz-adv-x="2463" d="M133 0l1397 1434h123l-1397 -1434h-123zM190 1001q0 114 51.5 217t143 167.5t197.5 64.5q123 0 201.5 -84.5t78.5 -208.5q0 -114 -51.5 -217t-142.5 -167t-197 -64q-123 0 -202 84.5t-79 207.5zM291 1012q0 -98 49.5 -156.5t138.5 -58.5q76 0 142.5 52.5t103.5 133 t37 164.5q0 98 -50 156.5t-139 58.5q-76 0 -142 -52.5t-103 -133t-37 -164.5zM924 279q0 114 51.5 217t142.5 167t197 64q123 0 201.5 -84.5t78.5 -208.5q0 -114 -51.5 -217t-142.5 -167t-197 -64q-123 0 -201.5 84.5t-78.5 208.5zM1024 289q0 -98 49.5 -156.5t138.5 -58.5 q76 0 142.5 52.5t103.5 133t37 164.5q0 98 -49.5 156.5t-138.5 58.5q-76 0 -142.5 -52.5t-103.5 -133t-37 -164.5zM1706 279q0 114 51.5 217t142.5 167t197 64q123 0 202 -85t79 -208q0 -114 -51.5 -217t-142.5 -167t-197 -64q-123 0 -202 85t-79 208zM1806 289 q0 -98 50 -156.5t139 -58.5q76 0 142 52.5t103 133t37 164.5q0 98 -49.5 156.5t-138.5 58.5q-76 0 -142.5 -52.5t-103.5 -133t-37 -164.5z" />
<glyph unicode="&#x2039;" horiz-adv-x="636" d="M92 514l4 16l443 428l73 -57l-393 -393l170 -377l-84 -45z" />
<glyph unicode="&#x203a;" horiz-adv-x="636" d="M23 141l393 394l-170 376l84 45l213 -428l-4 -16l-443 -428z" />
<glyph unicode="&#x2044;" horiz-adv-x="1126" d="M-170 -201l1427 1753h121l-1427 -1753h-121z" />
<glyph unicode="&#x205f;" horiz-adv-x="459" />
<glyph unicode="&#x20ac;" horiz-adv-x="1400" d="M76 502l26 98h164q6 134 43 252h-141l27 98h149q91 227 266.5 367.5t399.5 140.5q171 0 285 -90t163 -235l-92 -37q-55 130 -142.5 198t-232.5 68q-169 0 -310.5 -113t-223.5 -299h616l-26 -98h-627q-39 -125 -45 -252h606l-27 -98h-579q9 -194 111.5 -312t277.5 -118 q126 0 224 50.5t188 149.5l71 -61q-102 -114 -216.5 -175t-268.5 -61q-211 0 -349.5 142.5t-148.5 384.5h-188z" />
<glyph unicode="&#x2122;" horiz-adv-x="1413" d="M268 1364l21 70h485l-20 -70h-207l-160 -561h-72l160 561h-207zM737 803l181 631h65l147 -375l345 375h84l-181 -631h-71l145 504l-342 -365h-10l-146 365l-145 -504h-72z" />
<glyph unicode="&#x2202;" d="M0 0v1434h1024v-1434h-1024zM100 197l351 520l-351 520v-1040zM166 100h694l-348 523zM166 1331l346 -522l348 522h-694zM571 717l351 -520v1040z" />
<glyph unicode="&#x2206;" horiz-adv-x="1617" d="M-20 0l1032 1444h102l262 -1444h-1396zM166 98h1083l-211 1229z" />
<glyph unicode="&#x220f;" d="M0 0v1434h1024v-1434h-1024zM100 197l351 520l-351 520v-1040zM166 100h694l-348 523zM166 1331l346 -522l348 522h-694zM571 717l351 -520v1040z" />
<glyph unicode="&#x2211;" d="M0 0v1434h1024v-1434h-1024zM100 197l351 520l-351 520v-1040zM166 100h694l-348 523zM166 1331l346 -522l348 522h-694zM571 717l351 -520v1040z" />
<glyph unicode="&#x221a;" horiz-adv-x="985" d="M-88 307l203 88l151 -708l912 1923h100l-979 -2048h-113l-153 708l-105 -45z" />
<glyph unicode="&#x221e;" horiz-adv-x="1478" d="M139 725q0 120 74.5 204.5t192.5 84.5q38 0 78 -12t68 -24.5t71 -44t59 -45t62.5 -55.5t54.5 -49q24 20 66 59.5t71 64t68.5 52t83 41t90.5 13.5q121 0 198.5 -83t77.5 -206q0 -125 -73 -203t-197 -78q-55 0 -108.5 18t-105 53.5t-87 66t-84.5 77.5q-17 -14 -57 -48 t-61 -51t-58.5 -43.5t-66.5 -39t-68 -23t-78 -10.5q-121 0 -196 79.5t-75 201.5zM238 725q0 -81 47 -131.5t127 -50.5q125 0 317 182q-14 11 -67.5 55t-84 67t-80 45.5t-91.5 22.5q-75 0 -121.5 -56.5t-46.5 -133.5zM866 725q6 -5 34 -29.5t37.5 -32.5t36 -29t40.5 -30 t39.5 -23.5t44 -20.5t43 -11.5t47.5 -5.5q77 0 122.5 52t45.5 130q0 85 -45 137.5t-129 52.5q-41 0 -84.5 -17.5t-89.5 -52t-73.5 -58t-68.5 -62.5z" />
<glyph unicode="&#x222b;" d="M0 0v1434h1024v-1434h-1024zM100 197l351 520l-351 520v-1040zM166 100h694l-348 523zM166 1331l346 -522l348 522h-694zM571 717l351 -520v1040z" />
<glyph unicode="&#x2248;" horiz-adv-x="1310" d="M82 412q115 268 313 268q61 0 139 -24t140.5 -52t136.5 -52t127 -24q71 0 126 46.5t87 119.5h76q-40 -111 -122.5 -187.5t-189.5 -76.5q-62 0 -139.5 24t-139.5 52t-134.5 52t-124.5 24q-70 0 -128.5 -49t-88.5 -121h-78zM170 741q116 269 315 269q75 0 176.5 -38 t200 -76t164.5 -38q71 0 126 46.5t87 119.5h76q-41 -112 -122 -188t-189 -76q-61 0 -139 23.5t-140.5 52t-135 52t-124.5 23.5q-70 0 -128.5 -49t-88.5 -121h-78z" />
<glyph unicode="&#x2260;" horiz-adv-x="1310" d="M166 438l29 105h305l284 356h-495l28 105h551l205 253l74 -45l-168 -208h268l-28 -105h-324l-285 -356h514l-28 -105h-572l-192 -239l-72 47l154 192h-248z" />
<glyph unicode="&#x2264;" horiz-adv-x="1310" d="M-39 10l27 99h1018l-27 -99h-1018zM117 594l30 111l1123 395l-29 -117l-975 -340l793 -340l-31 -104z" />
<glyph unicode="&#x2265;" horiz-adv-x="1310" d="M-12 10l26 99h1018l-26 -99h-1018zM37 199l31 118l970 340l-788 340l29 103l913 -395l-31 -111z" />
<glyph unicode="&#x25ca;" horiz-adv-x="1310" d="M338 729l342 801h108l347 -801l-347 -801h-108zM449 729l286 -686l291 686l-291 686z" />
<glyph unicode="&#x25fc;" horiz-adv-x="1044" d="M0 0v1044h1044v-1044h-1044z" />
<glyph unicode="&#xf8ff;" d="M0 0v1434h1024v-1434h-1024zM100 197l351 520l-351 520v-1040zM166 100h694l-348 523zM166 1331l346 -522l348 522h-694zM571 717l351 -520v1040z" />
</font>
</defs>
</svg>
